<svg xmlns="http://www.w3.org/2000/svg" xmlns:xlink="http://www.w3.org/1999/xlink" viewBox="0 0 1562 889.63"><defs><style>.cls-1{fill:#040d4f;}.cls-2{fill:url(#radial-gradient);}.cls-3{fill:url(#radial-gradient-2);}.cls-4{fill:url(#radial-gradient-3);}.cls-5{fill:url(#radial-gradient-4);}.cls-6{fill:url(#radial-gradient-5);}.cls-7{fill:url(#radial-gradient-6);}.cls-8{fill:url(#radial-gradient-7);}.cls-9{fill:url(#radial-gradient-8);}.cls-10{fill:url(#radial-gradient-9);}.cls-11{fill:url(#radial-gradient-10);}.cls-12{fill:url(#radial-gradient-11);}.cls-13{fill:url(#radial-gradient-12);}.cls-14{fill:url(#radial-gradient-13);}.cls-15{fill:url(#radial-gradient-14);}.cls-16{fill:url(#radial-gradient-15);}.cls-17{fill:url(#radial-gradient-16);}.cls-18{fill:url(#radial-gradient-17);}.cls-19{fill:url(#radial-gradient-18);}.cls-20{fill:url(#radial-gradient-19);}.cls-21{fill:url(#radial-gradient-20);}.cls-22{fill:url(#radial-gradient-21);}.cls-23{fill:url(#radial-gradient-22);}.cls-24{fill:url(#radial-gradient-23);}.cls-25{fill:url(#radial-gradient-24);}.cls-26{fill:url(#radial-gradient-25);}.cls-27{fill:url(#radial-gradient-26);}.cls-28{fill:url(#radial-gradient-27);}.cls-29{fill:url(#radial-gradient-28);}.cls-30{fill:url(#radial-gradient-29);}.cls-31{fill:url(#radial-gradient-30);}.cls-32{fill:url(#radial-gradient-31);}.cls-33{fill:url(#radial-gradient-32);}.cls-34{fill:url(#radial-gradient-33);}.cls-35{fill:url(#radial-gradient-34);}.cls-36{fill:url(#radial-gradient-35);}.cls-37{fill:url(#radial-gradient-36);}.cls-38{fill:url(#radial-gradient-37);}.cls-39{fill:url(#radial-gradient-38);}.cls-40{fill:url(#radial-gradient-39);}.cls-41{fill:url(#radial-gradient-40);}.cls-42{fill:url(#radial-gradient-41);}.cls-43{fill:url(#radial-gradient-42);}.cls-44{fill:url(#radial-gradient-43);}.cls-45{fill:url(#radial-gradient-44);}.cls-46{fill:url(#radial-gradient-45);}.cls-47{fill:url(#radial-gradient-46);}.cls-48{fill:url(#radial-gradient-47);}.cls-49{fill:url(#radial-gradient-48);}.cls-50{fill:url(#radial-gradient-49);}.cls-51{fill:url(#radial-gradient-50);}.cls-52{fill:url(#radial-gradient-51);}.cls-53{fill:url(#radial-gradient-52);}.cls-54{fill:url(#radial-gradient-53);}.cls-55{fill:url(#radial-gradient-54);}.cls-56{fill:url(#radial-gradient-55);}.cls-57{fill:url(#radial-gradient-56);}.cls-58{fill:url(#radial-gradient-57);}.cls-59{fill:url(#radial-gradient-58);}.cls-60{fill:url(#radial-gradient-59);}.cls-61{fill:url(#radial-gradient-60);}.cls-62{fill:url(#radial-gradient-61);}.cls-63{fill:url(#radial-gradient-62);}.cls-64{fill:url(#radial-gradient-63);}.cls-65{fill:url(#radial-gradient-64);}.cls-66{fill:url(#radial-gradient-65);}.cls-67{fill:url(#radial-gradient-66);}.cls-68{fill:url(#radial-gradient-67);}.cls-69{fill:url(#radial-gradient-68);}.cls-70{fill:url(#radial-gradient-69);}.cls-71{fill:url(#radial-gradient-70);}.cls-72{fill:url(#radial-gradient-71);}.cls-73{fill:url(#radial-gradient-72);}.cls-74{fill:url(#radial-gradient-73);}.cls-75{fill:url(#radial-gradient-74);}.cls-76{fill:url(#radial-gradient-75);}.cls-77{fill:url(#radial-gradient-76);}.cls-78{fill:url(#radial-gradient-77);}.cls-79{fill:url(#radial-gradient-78);}.cls-80{fill:url(#radial-gradient-79);}.cls-81{fill:url(#radial-gradient-80);}.cls-82{fill:url(#radial-gradient-81);}.cls-83{fill:url(#radial-gradient-82);}.cls-84{fill:url(#radial-gradient-83);}.cls-85{fill:url(#radial-gradient-84);}.cls-86{fill:url(#radial-gradient-85);}.cls-87{fill:url(#radial-gradient-86);}.cls-88{fill:url(#radial-gradient-87);}.cls-89{fill:url(#radial-gradient-88);}.cls-90{fill:url(#radial-gradient-89);}.cls-91{fill:url(#radial-gradient-90);}.cls-92{fill:url(#radial-gradient-91);}.cls-93{fill:url(#radial-gradient-92);}.cls-94{fill:url(#radial-gradient-93);}.cls-95{fill:url(#radial-gradient-94);}.cls-96{fill:url(#radial-gradient-95);}.cls-97{fill:url(#radial-gradient-96);}.cls-98{fill:url(#radial-gradient-97);}.cls-99{fill:url(#radial-gradient-98);}.cls-100{fill:url(#radial-gradient-99);}.cls-101{fill:url(#radial-gradient-100);}.cls-102{fill:url(#radial-gradient-101);}.cls-103{fill:url(#radial-gradient-102);}.cls-104{fill:url(#radial-gradient-103);}.cls-105{fill:url(#radial-gradient-104);}.cls-106{fill:url(#radial-gradient-105);}.cls-107{fill:url(#radial-gradient-106);}.cls-108{fill:url(#radial-gradient-107);}.cls-109{fill:url(#radial-gradient-108);}.cls-110{fill:url(#radial-gradient-109);}.cls-111{fill:url(#radial-gradient-110);}.cls-112{fill:url(#radial-gradient-111);}.cls-113{fill:url(#radial-gradient-112);}.cls-114{fill:url(#radial-gradient-113);}.cls-115{fill:url(#radial-gradient-114);}.cls-116{fill:url(#radial-gradient-115);}.cls-117{fill:url(#radial-gradient-116);}.cls-118{fill:url(#radial-gradient-117);}.cls-119{fill:url(#radial-gradient-118);}.cls-120{fill:url(#radial-gradient-119);}</style><radialGradient id="radial-gradient" cx="105.97" cy="47.4" r="5.29" gradientUnits="userSpaceOnUse"><stop offset="0" stop-color="#fff"/><stop offset="1" stop-opacity="0"/></radialGradient><radialGradient id="radial-gradient-2" cx="518.8" cy="509.34" r="5.29" xlink:href="#radial-gradient"/><radialGradient id="radial-gradient-3" cx="133.34" cy="42.72" r="5.29" xlink:href="#radial-gradient"/><radialGradient id="radial-gradient-4" cx="105.97" cy="108.21" r="5.29" xlink:href="#radial-gradient"/><radialGradient id="radial-gradient-5" cx="965.38" cy="125.28" r="5.29" xlink:href="#radial-gradient"/><radialGradient id="radial-gradient-6" cx="464.2" cy="412.03" r="5.29" xlink:href="#radial-gradient"/><radialGradient id="radial-gradient-7" cx="1236.7" cy="87.87" r="5.29" xlink:href="#radial-gradient"/><radialGradient id="radial-gradient-8" cx="896.98" cy="49.5" r="5.29" xlink:href="#radial-gradient"/><radialGradient id="radial-gradient-9" cx="480.14" cy="254.97" r="5.29" xlink:href="#radial-gradient"/><radialGradient id="radial-gradient-10" cx="674.46" cy="83.51" r="5.29" xlink:href="#radial-gradient"/><radialGradient id="radial-gradient-11" cx="469.71" cy="130.78" r="5.29" xlink:href="#radial-gradient"/><radialGradient id="radial-gradient-12" cx="497.27" cy="74.03" r="5.29" xlink:href="#radial-gradient"/><radialGradient id="radial-gradient-13" cx="116.54" cy="231.71" r="5.29" xlink:href="#radial-gradient"/><radialGradient id="radial-gradient-14" cx="319.91" cy="108.15" r="5.29" xlink:href="#radial-gradient"/><radialGradient id="radial-gradient-15" cx="631.61" cy="173.9" r="5.29" xlink:href="#radial-gradient"/><radialGradient id="radial-gradient-16" cx="394.02" cy="60.79" r="5.29" xlink:href="#radial-gradient"/><radialGradient id="radial-gradient-17" cx="319.88" cy="343.21" r="5.29" xlink:href="#radial-gradient"/><radialGradient id="radial-gradient-18" cx="1031.95" cy="93.88" r="5.29" xlink:href="#radial-gradient"/><radialGradient id="radial-gradient-19" cx="753" cy="205.2" r="5.29" xlink:href="#radial-gradient"/><radialGradient id="radial-gradient-20" cx="143.97" cy="174.4" r="5.29" xlink:href="#radial-gradient"/><radialGradient id="radial-gradient-21" cx="507.8" cy="322.34" r="5.29" xlink:href="#radial-gradient"/><radialGradient id="radial-gradient-22" cx="204.34" cy="159.72" r="5.29" xlink:href="#radial-gradient"/><radialGradient id="radial-gradient-23" cx="175.97" cy="298.21" r="5.29" xlink:href="#radial-gradient"/><radialGradient id="radial-gradient-24" cx="1400.38" cy="113.28" r="5.29" xlink:href="#radial-gradient"/><radialGradient id="radial-gradient-25" cx="161.2" cy="515.03" r="5.29" xlink:href="#radial-gradient"/><radialGradient id="radial-gradient-26" cx="171.7" cy="98.87" r="5.29" xlink:href="#radial-gradient"/><radialGradient id="radial-gradient-27" cx="1110.97" cy="52.4" r="5.29" xlink:href="#radial-gradient"/><radialGradient id="radial-gradient-28" cx="1138.34" cy="47.72" r="5.29" xlink:href="#radial-gradient"/><radialGradient id="radial-gradient-29" cx="1110.97" cy="113.21" r="5.29" xlink:href="#radial-gradient"/><radialGradient id="radial-gradient-30" cx="1176.7" cy="103.87" r="5.29" xlink:href="#radial-gradient"/><radialGradient id="radial-gradient-31" cx="319.98" cy="71.5" r="5.29" xlink:href="#radial-gradient"/><radialGradient id="radial-gradient-32" cx="299.14" cy="173.97" r="5.29" xlink:href="#radial-gradient"/><radialGradient id="radial-gradient-33" cx="233.46" cy="75.51" r="5.29" xlink:href="#radial-gradient"/><radialGradient id="radial-gradient-34" cx="795.71" cy="113.78" r="5.29" xlink:href="#radial-gradient"/><radialGradient id="radial-gradient-35" cx="309.27" cy="222.03" r="5.29" xlink:href="#radial-gradient"/><radialGradient id="radial-gradient-36" cx="411.54" cy="199.71" r="5.29" xlink:href="#radial-gradient"/><radialGradient id="radial-gradient-37" cx="257.91" cy="289.15" r="5.29" xlink:href="#radial-gradient"/><radialGradient id="radial-gradient-38" cx="339.61" cy="528.9" r="5.29" xlink:href="#radial-gradient"/><radialGradient id="radial-gradient-39" cx="529.02" cy="179.79" r="5.29" xlink:href="#radial-gradient"/><radialGradient id="radial-gradient-40" cx="252.88" cy="427.21" r="5.29" xlink:href="#radial-gradient"/><radialGradient id="radial-gradient-41" cx="681.95" cy="294.88" r="5.29" xlink:href="#radial-gradient"/><radialGradient id="radial-gradient-42" cx="117" cy="338.2" r="5.29" xlink:href="#radial-gradient"/><radialGradient id="radial-gradient-43" cx="350.97" cy="154.4" r="5.29" gradientTransform="matrix(-1, 0, 0, 1, 1541.35, 0)" xlink:href="#radial-gradient"/><radialGradient id="radial-gradient-44" cx="744.8" cy="594.34" r="5.29" gradientTransform="matrix(-1, 0, 0, 1, 1541.35, 0)" xlink:href="#radial-gradient"/><radialGradient id="radial-gradient-45" cx="160.34" cy="60.72" r="5.29" gradientTransform="matrix(-1, 0, 0, 1, 1541.35, 0)" xlink:href="#radial-gradient"/><radialGradient id="radial-gradient-46" cx="170.97" cy="293.21" r="5.29" gradientTransform="matrix(-1, 0, 0, 1, 1541.35, 0)" xlink:href="#radial-gradient"/><radialGradient id="radial-gradient-47" cx="973.38" cy="114.28" r="5.29" gradientTransform="matrix(-1, 0, 0, 1, 1541.35, 0)" xlink:href="#radial-gradient"/><radialGradient id="radial-gradient-48" cx="482.2" cy="621.03" r="5.29" gradientTransform="matrix(-1, 0, 0, 1, 1541.35, 0)" xlink:href="#radial-gradient"/><radialGradient id="radial-gradient-49" cx="1326.7" cy="236.87" r="5.29" gradientTransform="matrix(-1, 0, 0, 1, 1541.35, 0)" xlink:href="#radial-gradient"/><radialGradient id="radial-gradient-50" cx="961.98" cy="234.5" r="5.29" gradientTransform="matrix(-1, 0, 0, 1, 1541.35, 0)" xlink:href="#radial-gradient"/><radialGradient id="radial-gradient-51" cx="545.14" cy="439.97" r="5.29" gradientTransform="matrix(-1, 0, 0, 1, 1541.35, 0)" xlink:href="#radial-gradient"/><radialGradient id="radial-gradient-52" cx="739.46" cy="268.51" r="5.29" gradientTransform="matrix(-1, 0, 0, 1, 1541.35, 0)" xlink:href="#radial-gradient"/><radialGradient id="radial-gradient-53" cx="534.71" cy="315.78" r="5.29" gradientTransform="matrix(-1, 0, 0, 1, 1541.35, 0)" xlink:href="#radial-gradient"/><radialGradient id="radial-gradient-54" cx="562.27" cy="259.03" r="5.29" gradientTransform="matrix(-1, 0, 0, 1, 1541.35, 0)" xlink:href="#radial-gradient"/><radialGradient id="radial-gradient-55" cx="181.54" cy="416.71" r="5.29" gradientTransform="matrix(-1, 0, 0, 1, 1541.35, 0)" xlink:href="#radial-gradient"/><radialGradient id="radial-gradient-56" cx="476.91" cy="298.15" r="5.29" gradientTransform="matrix(-1, 0, 0, 1, 1541.35, 0)" xlink:href="#radial-gradient"/><radialGradient id="radial-gradient-57" cx="696.61" cy="358.9" r="5.29" gradientTransform="matrix(-1, 0, 0, 1, 1541.35, 0)" xlink:href="#radial-gradient"/><radialGradient id="radial-gradient-58" cx="459.02" cy="245.79" r="5.29" gradientTransform="matrix(-1, 0, 0, 1, 1541.35, 0)" xlink:href="#radial-gradient"/><radialGradient id="radial-gradient-59" cx="384.88" cy="528.21" r="5.29" gradientTransform="matrix(-1, 0, 0, 1, 1541.35, 0)" xlink:href="#radial-gradient"/><radialGradient id="radial-gradient-60" cx="1096.95" cy="278.88" r="5.29" gradientTransform="matrix(-1, 0, 0, 1, 1541.35, 0)" xlink:href="#radial-gradient"/><radialGradient id="radial-gradient-61" cx="920" cy="383.2" r="5.29" gradientTransform="matrix(-1, 0, 0, 1, 1541.35, 0)" xlink:href="#radial-gradient"/><radialGradient id="radial-gradient-62" cx="208.97" cy="359.4" r="5.29" gradientTransform="matrix(-1, 0, 0, 1, 1541.35, 0)" xlink:href="#radial-gradient"/><radialGradient id="radial-gradient-63" cx="572.8" cy="507.34" r="5.29" gradientTransform="matrix(-1, 0, 0, 1, 1541.35, 0)" xlink:href="#radial-gradient"/><radialGradient id="radial-gradient-64" cx="269.34" cy="344.72" r="5.29" gradientTransform="matrix(-1, 0, 0, 1, 1541.35, 0)" xlink:href="#radial-gradient"/><radialGradient id="radial-gradient-65" cx="236.97" cy="502.21" r="5.29" gradientTransform="matrix(-1, 0, 0, 1, 1541.35, 0)" xlink:href="#radial-gradient"/><radialGradient id="radial-gradient-66" cx="1370.38" cy="378.28" r="5.29" gradientTransform="matrix(-1, 0, 0, 1, 1541.35, 0)" xlink:href="#radial-gradient"/><radialGradient id="radial-gradient-67" cx="226.2" cy="700.03" r="5.29" gradientTransform="matrix(-1, 0, 0, 1, 1541.35, 0)" xlink:href="#radial-gradient"/><radialGradient id="radial-gradient-68" cx="273.7" cy="237.87" r="5.29" gradientTransform="matrix(-1, 0, 0, 1, 1541.35, 0)" xlink:href="#radial-gradient"/><radialGradient id="radial-gradient-69" cx="570.98" cy="364.5" r="5.29" gradientTransform="matrix(-1, 0, 0, 1, 1541.35, 0)" xlink:href="#radial-gradient"/><radialGradient id="radial-gradient-70" cx="487.14" cy="184.97" r="5.29" gradientTransform="matrix(-1, 0, 0, 1, 1541.35, 0)" xlink:href="#radial-gradient"/><radialGradient id="radial-gradient-71" cx="226.46" cy="174.51" r="5.29" gradientTransform="matrix(-1, 0, 0, 1, 1541.35, 0)" xlink:href="#radial-gradient"/><radialGradient id="radial-gradient-72" cx="860.71" cy="298.78" r="5.29" gradientTransform="matrix(-1, 0, 0, 1, 1541.35, 0)" xlink:href="#radial-gradient"/><radialGradient id="radial-gradient-73" cx="625.27" cy="394.03" r="5.29" gradientTransform="matrix(-1, 0, 0, 1, 1541.35, 0)" xlink:href="#radial-gradient"/><radialGradient id="radial-gradient-74" cx="476.54" cy="384.71" r="5.29" gradientTransform="matrix(-1, 0, 0, 1, 1541.35, 0)" xlink:href="#radial-gradient"/><radialGradient id="radial-gradient-75" cx="402.91" cy="557.15" r="5.29" gradientTransform="matrix(-1, 0, 0, 1, 1541.35, 0)" xlink:href="#radial-gradient"/><radialGradient id="radial-gradient-76" cx="404.61" cy="713.9" r="5.29" gradientTransform="matrix(-1, 0, 0, 1, 1541.35, 0)" xlink:href="#radial-gradient"/><radialGradient id="radial-gradient-77" cx="370.02" cy="468.79" r="5.29" gradientTransform="matrix(-1, 0, 0, 1, 1541.35, 0)" xlink:href="#radial-gradient"/><radialGradient id="radial-gradient-78" cx="333.88" cy="373.21" r="5.29" gradientTransform="matrix(-1, 0, 0, 1, 1541.35, 0)" xlink:href="#radial-gradient"/><radialGradient id="radial-gradient-79" cx="746.95" cy="479.88" r="5.29" gradientTransform="matrix(-1, 0, 0, 1, 1541.35, 0)" xlink:href="#radial-gradient"/><radialGradient id="radial-gradient-80" cx="182" cy="523.2" r="5.29" gradientTransform="matrix(-1, 0, 0, 1, 1541.35, 0)" xlink:href="#radial-gradient"/><radialGradient id="radial-gradient-81" cx="800.97" cy="417.21" r="5.29" gradientTransform="matrix(-1, 0, 0, 1, 1541.35, 0)" xlink:href="#radial-gradient"/><radialGradient id="radial-gradient-82" cx="1112.2" cy="745.03" r="5.29" gradientTransform="matrix(-1, 0, 0, 1, 1541.35, 0)" xlink:href="#radial-gradient"/><radialGradient id="radial-gradient-83" cx="1175.14" cy="563.97" r="5.29" gradientTransform="matrix(-1, 0, 0, 1, 1541.35, 0)" xlink:href="#radial-gradient"/><radialGradient id="radial-gradient-84" cx="1202.71" cy="416.78" r="5.29" gradientTransform="matrix(-1, 0, 0, 1, 1541.35, 0)" xlink:href="#radial-gradient"/><radialGradient id="radial-gradient-85" cx="811.54" cy="540.71" r="5.29" gradientTransform="matrix(-1, 0, 0, 1, 1541.35, 0)" xlink:href="#radial-gradient"/><radialGradient id="radial-gradient-86" cx="1146.91" cy="339.15" r="5.29" gradientTransform="matrix(-1, 0, 0, 1, 1541.35, 0)" xlink:href="#radial-gradient"/><radialGradient id="radial-gradient-87" cx="1014.88" cy="652.21" r="5.29" gradientTransform="matrix(-1, 0, 0, 1, 1541.35, 0)" xlink:href="#radial-gradient"/><radialGradient id="radial-gradient-88" cx="838.97" cy="483.4" r="5.29" gradientTransform="matrix(-1, 0, 0, 1, 1541.35, 0)" xlink:href="#radial-gradient"/><radialGradient id="radial-gradient-89" cx="1202.8" cy="631.34" r="5.29" gradientTransform="matrix(-1, 0, 0, 1, 1541.35, 0)" xlink:href="#radial-gradient"/><radialGradient id="radial-gradient-90" cx="1301.2" cy="760.03" r="5.29" gradientTransform="matrix(-1, 0, 0, 1, 1541.35, 0)" xlink:href="#radial-gradient"/><radialGradient id="radial-gradient-91" cx="1364.14" cy="578.97" r="5.29" gradientTransform="matrix(-1, 0, 0, 1, 1541.35, 0)" xlink:href="#radial-gradient"/><radialGradient id="radial-gradient-92" cx="1391.8" cy="646.34" r="5.29" gradientTransform="matrix(-1, 0, 0, 1, 1541.35, 0)" xlink:href="#radial-gradient"/><radialGradient id="radial-gradient-93" cx="994.34" cy="439.72" r="5.29" gradientTransform="matrix(-1, 0, 0, 1, 1541.35, 0)" xlink:href="#radial-gradient"/><radialGradient id="radial-gradient-94" cx="866.97" cy="626.21" r="5.29" gradientTransform="matrix(-1, 0, 0, 1, 1541.35, 0)" xlink:href="#radial-gradient"/><radialGradient id="radial-gradient-95" cx="856.2" cy="824.03" r="5.29" gradientTransform="matrix(-1, 0, 0, 1, 1541.35, 0)" xlink:href="#radial-gradient"/><radialGradient id="radial-gradient-96" cx="1152.98" cy="474.5" r="5.29" gradientTransform="matrix(-1, 0, 0, 1, 1541.35, 0)" xlink:href="#radial-gradient"/><radialGradient id="radial-gradient-97" cx="1272.27" cy="543.03" r="5.29" gradientTransform="matrix(-1, 0, 0, 1, 1541.35, 0)" xlink:href="#radial-gradient"/><radialGradient id="radial-gradient-98" cx="761.61" cy="542.9" r="5.29" xlink:href="#radial-gradient"/><radialGradient id="radial-gradient-99" cx="690.2" cy="759.03" r="5.29" gradientTransform="matrix(-1, 0, 0, 1, 1541.35, 0)" xlink:href="#radial-gradient"/><radialGradient id="radial-gradient-100" cx="753.14" cy="577.97" r="5.29" gradientTransform="matrix(-1, 0, 0, 1, 1541.35, 0)" xlink:href="#radial-gradient"/><radialGradient id="radial-gradient-101" cx="780.8" cy="645.34" r="5.29" gradientTransform="matrix(-1, 0, 0, 1, 1541.35, 0)" xlink:href="#radial-gradient"/><radialGradient id="radial-gradient-102" cx="833.27" cy="532.03" r="5.29" gradientTransform="matrix(-1, 0, 0, 1, 1541.35, 0)" xlink:href="#radial-gradient"/><radialGradient id="radial-gradient-103" cx="1106.54" cy="508.71" r="5.29" gradientTransform="matrix(-1, 0, 0, 1, 1541.35, 0)" xlink:href="#radial-gradient"/><radialGradient id="radial-gradient-104" cx="1032.91" cy="681.15" r="5.29" gradientTransform="matrix(-1, 0, 0, 1, 1541.35, 0)" xlink:href="#radial-gradient"/><radialGradient id="radial-gradient-105" cx="1034.61" cy="837.9" r="5.29" gradientTransform="matrix(-1, 0, 0, 1, 1541.35, 0)" xlink:href="#radial-gradient"/><radialGradient id="radial-gradient-106" cx="1000.02" cy="592.79" r="5.29" gradientTransform="matrix(-1, 0, 0, 1, 1541.35, 0)" xlink:href="#radial-gradient"/><radialGradient id="radial-gradient-107" cx="963.88" cy="497.21" r="5.29" gradientTransform="matrix(-1, 0, 0, 1, 1541.35, 0)" xlink:href="#radial-gradient"/><radialGradient id="radial-gradient-108" cx="812" cy="647.2" r="5.29" gradientTransform="matrix(-1, 0, 0, 1, 1541.35, 0)" xlink:href="#radial-gradient"/><radialGradient id="radial-gradient-109" cx="510.8" cy="623.34" r="5.29" gradientTransform="matrix(-1, 0, 0, 1, 1541.35, 0)" xlink:href="#radial-gradient"/><radialGradient id="radial-gradient-110" cx="338.8" cy="536.34" r="5.29" gradientTransform="matrix(-1, 0, 0, 1, 1541.35, 0)" xlink:href="#radial-gradient"/><radialGradient id="radial-gradient-111" cx="577.54" cy="569.71" r="5.29" gradientTransform="matrix(-1, 0, 0, 1, 1541.35, 0)" xlink:href="#radial-gradient"/><radialGradient id="radial-gradient-112" cx="632.97" cy="655.21" r="5.29" gradientTransform="matrix(-1, 0, 0, 1, 1541.35, 0)" xlink:href="#radial-gradient"/><radialGradient id="radial-gradient-113" cx="622.2" cy="853.03" r="5.29" gradientTransform="matrix(-1, 0, 0, 1, 1541.35, 0)" xlink:href="#radial-gradient"/><radialGradient id="radial-gradient-114" cx="995.61" cy="571.9" r="5.29" xlink:href="#radial-gradient"/><radialGradient id="radial-gradient-115" cx="456.2" cy="788.03" r="5.29" gradientTransform="matrix(-1, 0, 0, 1, 1541.35, 0)" xlink:href="#radial-gradient"/><radialGradient id="radial-gradient-116" cx="519.14" cy="606.97" r="5.29" gradientTransform="matrix(-1, 0, 0, 1, 1541.35, 0)" xlink:href="#radial-gradient"/><radialGradient id="radial-gradient-117" cx="546.8" cy="674.34" r="5.29" gradientTransform="matrix(-1, 0, 0, 1, 1541.35, 0)" xlink:href="#radial-gradient"/><radialGradient id="radial-gradient-118" cx="599.27" cy="561.03" r="5.29" gradientTransform="matrix(-1, 0, 0, 1, 1541.35, 0)" xlink:href="#radial-gradient"/><radialGradient id="radial-gradient-119" cx="578" cy="676.2" r="5.29" gradientTransform="matrix(-1, 0, 0, 1, 1541.35, 0)" xlink:href="#radial-gradient"/></defs><title>background</title><g id="Layer_2" data-name="Layer 2"><g id="Background"><rect class="cls-1" width="1562" height="889.63"/><circle class="cls-2" cx="105.97" cy="47.4" r="5.29"/><circle class="cls-3" cx="518.8" cy="509.34" r="5.29"/><circle class="cls-4" cx="133.34" cy="42.72" r="5.29"/><circle class="cls-5" cx="105.97" cy="108.21" r="5.29"/><circle class="cls-6" cx="965.38" cy="125.28" r="5.29"/><circle class="cls-7" cx="464.2" cy="412.03" r="5.29"/><circle class="cls-8" cx="1236.7" cy="87.87" r="5.29"/><circle class="cls-9" cx="896.98" cy="49.5" r="5.29"/><circle class="cls-10" cx="480.14" cy="254.97" r="5.29"/><circle class="cls-11" cx="674.46" cy="83.51" r="5.29"/><circle class="cls-12" cx="469.71" cy="130.78" r="5.29"/><circle class="cls-13" cx="497.27" cy="74.03" r="5.29"/><circle class="cls-14" cx="116.54" cy="231.71" r="5.29"/><circle class="cls-15" cx="319.91" cy="108.15" r="5.29"/><circle class="cls-16" cx="631.61" cy="173.9" r="5.29"/><circle class="cls-17" cx="394.02" cy="60.79" r="5.29"/><circle class="cls-18" cx="319.88" cy="343.21" r="5.29"/><circle class="cls-19" cx="1031.95" cy="93.88" r="5.29"/><circle class="cls-20" cx="753" cy="205.2" r="5.29"/><circle class="cls-21" cx="143.97" cy="174.4" r="5.29"/><circle class="cls-22" cx="507.8" cy="322.34" r="5.29"/><circle class="cls-23" cx="204.34" cy="159.72" r="5.29"/><circle class="cls-24" cx="175.97" cy="298.21" r="5.29"/><circle class="cls-25" cx="1400.38" cy="113.28" r="5.29"/><circle class="cls-26" cx="161.2" cy="515.03" r="5.29"/><circle class="cls-27" cx="171.7" cy="98.87" r="5.29"/><circle class="cls-28" cx="1110.97" cy="52.4" r="5.29"/><circle class="cls-29" cx="1138.34" cy="47.72" r="5.29"/><circle class="cls-30" cx="1110.97" cy="113.21" r="5.29"/><circle class="cls-31" cx="1176.7" cy="103.87" r="5.29"/><circle class="cls-32" cx="319.98" cy="71.5" r="5.29"/><circle class="cls-33" cx="299.14" cy="173.97" r="5.29"/><circle class="cls-34" cx="233.46" cy="75.51" r="5.29"/><circle class="cls-35" cx="795.71" cy="113.78" r="5.29"/><circle class="cls-36" cx="309.27" cy="222.03" r="5.29"/><circle class="cls-37" cx="411.54" cy="199.71" r="5.29"/><circle class="cls-38" cx="257.91" cy="289.15" r="5.29"/><circle class="cls-39" cx="339.61" cy="528.9" r="5.29"/><circle class="cls-40" cx="529.02" cy="179.79" r="5.29"/><circle class="cls-41" cx="252.88" cy="427.21" r="5.29"/><circle class="cls-42" cx="681.95" cy="294.88" r="5.29"/><circle class="cls-43" cx="117" cy="338.2" r="5.29"/><circle class="cls-44" cx="1190.38" cy="154.4" r="5.29"/><circle class="cls-45" cx="796.55" cy="594.34" r="5.29"/><circle class="cls-46" cx="1381.01" cy="60.72" r="5.29"/><circle class="cls-47" cx="1370.38" cy="293.21" r="5.29"/><circle class="cls-48" cx="567.97" cy="114.28" r="5.29"/><circle class="cls-49" cx="1059.15" cy="621.03" r="5.29"/><circle class="cls-50" cx="214.65" cy="236.87" r="5.29"/><circle class="cls-51" cx="579.38" cy="234.5" r="5.29"/><circle class="cls-52" cx="996.21" cy="439.97" r="5.29"/><circle class="cls-53" cx="801.89" cy="268.51" r="5.29"/><circle class="cls-54" cx="1006.64" cy="315.78" r="5.29"/><circle class="cls-55" cx="979.08" cy="259.03" r="5.29"/><circle class="cls-56" cx="1359.81" cy="416.71" r="5.29"/><circle class="cls-57" cx="1064.44" cy="298.15" r="5.29"/><circle class="cls-58" cx="844.74" cy="358.9" r="5.29"/><circle class="cls-59" cx="1082.34" cy="245.79" r="5.29"/><circle class="cls-60" cx="1156.47" cy="528.21" r="5.29"/><circle class="cls-61" cx="444.4" cy="278.88" r="5.29"/><circle class="cls-62" cx="621.35" cy="383.2" r="5.29"/><circle class="cls-63" cx="1332.38" cy="359.4" r="5.29"/><circle class="cls-64" cx="968.55" cy="507.34" r="5.29"/><circle class="cls-65" cx="1272.01" cy="344.72" r="5.29"/><circle class="cls-66" cx="1304.38" cy="502.21" r="5.29"/><circle class="cls-67" cx="170.97" cy="378.28" r="5.29"/><circle class="cls-68" cx="1315.15" cy="700.03" r="5.29"/><circle class="cls-69" cx="1267.65" cy="237.87" r="5.29"/><circle class="cls-70" cx="970.38" cy="364.5" r="5.29"/><circle class="cls-71" cx="1054.21" cy="184.97" r="5.29"/><circle class="cls-72" cx="1314.89" cy="174.51" r="5.29"/><circle class="cls-73" cx="680.64" cy="298.78" r="5.29"/><circle class="cls-74" cx="916.08" cy="394.03" r="5.29"/><circle class="cls-75" cx="1064.81" cy="384.71" r="5.29"/><circle class="cls-76" cx="1138.44" cy="557.15" r="5.29"/><circle class="cls-77" cx="1136.74" cy="713.9" r="5.29"/><circle class="cls-78" cx="1171.34" cy="468.79" r="5.29"/><circle class="cls-79" cx="1207.47" cy="373.21" r="5.29"/><circle class="cls-80" cx="794.4" cy="479.88" r="5.29"/><circle class="cls-81" cx="1359.35" cy="523.2" r="5.29"/><circle class="cls-82" cx="740.38" cy="417.21" r="5.29"/><circle class="cls-83" cx="429.15" cy="745.03" r="5.29"/><circle class="cls-84" cx="366.21" cy="563.97" r="5.29"/><circle class="cls-85" cx="338.64" cy="416.78" r="5.29"/><circle class="cls-86" cx="729.81" cy="540.71" r="5.29"/><circle class="cls-87" cx="394.44" cy="339.15" r="5.29"/><circle class="cls-88" cx="526.47" cy="652.21" r="5.29"/><circle class="cls-89" cx="702.38" cy="483.4" r="5.29"/><circle class="cls-90" cx="338.55" cy="631.34" r="5.29"/><circle class="cls-91" cx="240.15" cy="760.03" r="5.29"/><circle class="cls-92" cx="177.21" cy="578.97" r="5.29"/><circle class="cls-93" cx="149.55" cy="646.34" r="5.29"/><circle class="cls-94" cx="547.01" cy="439.72" r="5.29"/><circle class="cls-95" cx="674.38" cy="626.21" r="5.29"/><circle class="cls-96" cx="685.15" cy="824.03" r="5.29"/><circle class="cls-97" cx="388.38" cy="474.5" r="5.29"/><circle class="cls-98" cx="269.08" cy="543.03" r="5.29"/><circle class="cls-99" cx="761.61" cy="542.9" r="5.29"/><circle class="cls-100" cx="851.15" cy="759.03" r="5.29"/><circle class="cls-101" cx="788.21" cy="577.97" r="5.29"/><circle class="cls-102" cx="760.55" cy="645.34" r="5.29"/><circle class="cls-103" cx="708.08" cy="532.03" r="5.29"/><circle class="cls-104" cx="434.81" cy="508.71" r="5.29"/><circle class="cls-105" cx="508.44" cy="681.15" r="5.29"/><circle class="cls-106" cx="506.74" cy="837.9" r="5.29"/><circle class="cls-107" cx="541.34" cy="592.79" r="5.29"/><circle class="cls-108" cx="577.47" cy="497.21" r="5.29"/><circle class="cls-109" cx="729.35" cy="647.2" r="5.29"/><circle class="cls-110" cx="1030.55" cy="623.34" r="5.29"/><circle class="cls-111" cx="1202.55" cy="536.34" r="5.29"/><circle class="cls-112" cx="963.81" cy="569.71" r="5.29"/><circle class="cls-113" cx="908.38" cy="655.21" r="5.29"/><circle class="cls-114" cx="919.15" cy="853.03" r="5.29"/><circle class="cls-115" cx="995.61" cy="571.9" r="5.29"/><circle class="cls-116" cx="1085.15" cy="788.03" r="5.29"/><circle class="cls-117" cx="1022.21" cy="606.97" r="5.29"/><circle class="cls-118" cx="994.55" cy="674.34" r="5.29"/><circle class="cls-119" cx="942.08" cy="561.03" r="5.29"/><circle class="cls-120" cx="963.35" cy="676.2" r="5.29"/></g></g></svg>