<svg xmlns="http://www.w3.org/2000/svg" xmlns:xlink="http://www.w3.org/1999/xlink" viewBox="0 0 259.32 307.02"><defs><style>.cls-1{fill:#edc196;}.cls-2{fill:#1a1a1a;}.cls-3{fill:#42210b;}.cls-4{fill:red;}.cls-5{fill:url(#radial-gradient);}</style><radialGradient id="radial-gradient" cx="114.37" cy="84.02" r="17.34" gradientUnits="userSpaceOnUse"><stop offset="0" stop-color="#ffbce1"/><stop offset="0.08" stop-color="#febcde" stop-opacity="0.96"/><stop offset="0.23" stop-color="#fdbdd7" stop-opacity="0.86"/><stop offset="0.41" stop-color="#fabdcb" stop-opacity="0.7"/><stop offset="0.62" stop-color="#f6bfba" stop-opacity="0.47"/><stop offset="0.85" stop-color="#f0c0a4" stop-opacity="0.19"/><stop offset="1" stop-color="#edc196" stop-opacity="0"/></radialGradient></defs><title>boy</title><g id="Layer_2" data-name="Layer 2"><g id="Boy"><path class="cls-1" d="M192.33,49.76c-9.11-21.84-1.14-32.84,10.26-31.74s26.58,9.39,21.83,22.29S207.15,62,207.15,62Z"/><path class="cls-2" d="M73.12,171c-5.5,16-11,32,3.66,38s103.59-71,111.84-92,25.67-47,24.76-57S196,46,187.71,51s-22.92,48-32.09,55S73.12,171,73.12,171Z"/><path class="cls-1" d="M134.37,97c17.91,1,18-2,40.68-15a79,79,0,1,0-6.22,38.5C168.62,120.45,140.35,113,134.37,97Z"/><path class="cls-3" d="M82.37,81c-9,19-10,45-12,56s-10,25-15,27c-3-4-2-6-3-8-2,3,0,6-2,7-2-2-1-8-3-10s-12.85-13.47-12.85-13.47L25.37,95l49-24Z"/><ellipse class="cls-1" cx="76.87" cy="95.02" rx="14.5" ry="20"/><path class="cls-3" d="M91.36,71.15c1.48,18.76-1.72,35.4-3.84,41.15-2.79-6.69-.14-9.88-1.64-12.64-2.42,2-.78,14.64-6.31,22.2C76.33,117.54,74.12,93.71,77,80.7S91.36,71.15,91.36,71.15Z"/><path class="cls-4" d="M134.37,10c-3-11-35-11-48-9-1.54.23-3.93,1.8-6.93,4.38C70.31,2.64,64.79,4.88,49.37,10c-24,8-53,42-49,61A167,167,0,0,0,8.08,95.39C3.46,102.84.57,108.49.37,111c-1,13,11,34,29,31S137.7,22.22,134.37,10Z"/><circle class="cls-1" cx="167.87" cy="55.52" r="6.5"/><path d="M145.51,36.53c-2.31-4.4-7.16-6.41-10.82-4.48s-4.77,7.05-2.46,11.46a11.39,11.39,0,0,0,1.31,1.92L138.37,43l-1.52,5a7,7,0,0,0,6.21,0C146.73,46.06,147.82,40.93,145.51,36.53Z"/><circle class="cls-5" cx="114.37" cy="84.02" r="18"/><path d="M149.91,168c8.46-2,9.46-12,2.46-17-9.08-6.49-83.47,2.41-91,9-8,7-5.29,10.72,3.86,16.36C53.37,186,26.37,301,31.37,307h157C189.37,291,158.45,176,149.91,168Z"/><path class="cls-1" d="M226.33,62.76c-9.11-21.84-1.14-32.84,10.26-31.74s26.58,9.39,21.83,22.29S241.15,75,241.15,75Z"/><path class="cls-2" d="M96.37,182c-6,16-12,32,4,38s113-71,122-92,28-47,27-57-19-14-28-9-25,48-35,55S96.37,182,96.37,182Z"/></g></g></svg>