<svg xmlns="http://www.w3.org/2000/svg" viewBox="0 0 81.93 85.38"><defs><style>.cls-1{fill:red;}.cls-2{fill:#c1272d;}.cls-3{fill:#ed1c24;}.cls-17,.cls-4{fill:#fff;}.cls-5{fill:#ccc;}.cls-10,.cls-6,.cls-7,.cls-8,.cls-9{fill:none;stroke:#666;stroke-miterlimit:10;}.cls-6{stroke-width:0.19px;}.cls-7{stroke-width:0.19px;}.cls-8{stroke-width:0.2px;}.cls-9{stroke-width:0.21px;}.cls-10{stroke-width:0.21px;}.cls-11{font-size:37.91px;}.cls-11,.cls-12,.cls-13,.cls-17{font-family:Arial-Black, Arial Black;}.cls-12{font-size:11.59px;}.cls-13{font-size:12.37px;}.cls-14{letter-spacing:0.01em;}.cls-15{letter-spacing:-0.02em;}.cls-16{letter-spacing:-0.09em;}.cls-17{font-size:8.35px;}.cls-18{letter-spacing:-0.09em;}</style></defs><title>CalendarIcon</title><g id="Layer_2" data-name="Layer 2"><g id="CalendarIcon"><rect class="cls-1" x="5.93" y="1.55" width="72.4" height="4.38"/><polygon class="cls-2" points="5.93 1.55 11.08 0 81.93 0 78.32 1.55 5.93 1.55"/><polygon class="cls-3" points="81.93 0 81.93 3.61 78.32 5.93 78.32 1.55 81.93 0"/><rect class="cls-4" x="7.21" y="5.93" width="71.11" height="79.35"/><polygon class="cls-5" points="81.93 3.61 81.93 82.7 78.32 85.28 78.32 5.93 81.93 3.61"/><line class="cls-6" x1="79.03" y1="84.78" x2="79.1" y2="73.43"/><line class="cls-7" x1="79.8" y1="84.26" x2="79.87" y2="72.4"/><line class="cls-8" x1="80.58" y1="83.74" x2="80.64" y2="71.11"/><line class="cls-9" x1="81.61" y1="82.97" x2="81.67" y2="69.05"/><line class="cls-10" x1="81.09" y1="83.49" x2="81.16" y2="69.82"/><text class="cls-11" transform="translate(12.59 56.05)">15</text><text class="cls-12" transform="translate(63.16 36.21) scale(1 1.01)">th</text><path class="cls-1" d="M6,6H78.25s1.83,48.44-7.07,79.36H0C6.8,65.8,6,6,6,6Z"/><text class="cls-13" transform="translate(18 45.7) scale(1.02 1)">H<tspan class="cls-14" x="10.3" y="0">a</tspan><tspan x="18.67" y="0">p</tspan><tspan class="cls-15" x="26.92" y="0">p</tspan><tspan x="34.96" y="0">y</tspan><tspan x="6.14" y="14.84">New</tspan><tspan class="cls-16" x="6.04" y="29.68">Y</tspan><tspan x="14.49" y="29.68">ear</tspan></text><text class="cls-17" transform="translate(15.77 14.65) scale(1.05 1.01)">Lunar <tspan class="cls-18" x="28.76" y="0">Y</tspan><tspan x="34.47" y="0">ear</tspan><tspan x="4.25" y="9.82">Calendar</tspan></text></g></g></svg>