<svg xmlns="http://www.w3.org/2000/svg" viewBox="0 0 295 331"><defs><style>.cls-1{fill:red;}.cls-2{fill:#c1272d;}.cls-3{fill:#ed1c24;}.cls-4{fill:#fff;}.cls-5{fill:#ccc;}.cls-10,.cls-6,.cls-7,.cls-8,.cls-9{fill:none;stroke:#666;stroke-miterlimit:10;}.cls-6{stroke-width:0.73px;}.cls-7{stroke-width:0.75px;}.cls-8{stroke-width:0.77px;}.cls-9{stroke-width:0.81px;}.cls-10{stroke-width:0.8px;}.cls-11{font-size:147.13px;}.cls-11,.cls-12{font-family:Arial-Black, Arial Black;}.cls-12{font-size:45px;}</style></defs><title>calendar15</title><g id="Layer_2" data-name="Layer 2"><g id="_15day" data-name="15day"><rect class="cls-1" y="6" width="281" height="17"/><polygon class="cls-2" points="0 6 20 0 295 0 281 6 0 6"/><polygon class="cls-3" points="295 0 295 14 281 23 281 6 295 0"/><rect class="cls-4" x="5" y="23" width="276" height="308"/><polygon class="cls-5" points="295 14 295 321 281 331 281 23 295 14"/><line class="cls-6" x1="283.74" y1="329.04" x2="284" y2="285"/><line class="cls-7" x1="286.74" y1="327.04" x2="287" y2="281"/><line class="cls-8" x1="289.74" y1="325.04" x2="290" y2="276"/><line class="cls-9" x1="293.74" y1="322.04" x2="294" y2="268"/><line class="cls-10" x1="291.74" y1="324.04" x2="292" y2="271"/><text class="cls-11" transform="translate(25.87 217.56)">15</text><text class="cls-12" transform="translate(222.13 140.56) scale(1 1.01)">th</text></g></g></svg>