<svg xmlns="http://www.w3.org/2000/svg" viewBox="0 0 365 317.25"><defs><style>.cls-1{fill:#2e3192;}.cls-2{fill:#1b1464;}.cls-3{fill:#edc196;}.cls-4{fill:#662d91;}.cls-5{fill:none;stroke:#000;stroke-miterlimit:10;stroke-width:1.25px;}.cls-6{fill:#42210b;}.cls-7{fill:red;}.cls-8{fill:#fff;}.cls-9{fill:#c1272d;}</style></defs><title>couple</title><g id="Layer_2" data-name="Layer 2"><g id="Couple"><polygon class="cls-1" points="48.84 241.57 48.75 296.5 100 300.25 102.5 246.5 107.5 300.25 156.25 296.5 149.99 235.7 48.84 241.57"/><polygon points="182.5 101.5 187.5 170.25 202.5 144 216.25 175.25 221.25 155.25 247.5 180.25 276.25 155.25 300 180.25 305 144 321.25 170.25 296.25 30.25 182.5 101.5"/><path class="cls-2" d="M289.8,156.64,336.85,194c13.23-5.29,17.49-12.07,16.36-22-7.49-10.47-55.89-37.65-55.89-37.65C286.43,138.15,284.65,144.64,289.8,156.64Z"/><circle class="cls-3" cx="182.5" cy="202.75" r="11.25"/><path d="M67.25,147.57S45.94,199.07,49.06,246c30.15,9.37,82.12,6.69,100.83-6.7,2.08-40.18-26.51-106-26.51-106Z"/><path class="cls-4" d="M231.7,150.61s-25,76-21.33,145.19c35.35,13.84,96.31,9.89,118.25-9.88,2.44-59.3-31.09-156.38-31.09-156.38Z"/><path d="M53.75,150.25l-42.5,42.5c3.75,13.75,10,18.75,20,18.75C42.5,205.25,75,160.25,75,160.25,72.5,149,66.25,146.5,53.75,150.25Z"/><path class="cls-2" d="M221.25,145.25l-42.5,42.5c3.75,13.75,10,18.75,20,18.75,11.25-6.25,43.75-51.25,43.75-51.25C240,144,233.75,141.5,221.25,145.25Z"/><circle class="cls-3" cx="183.13" cy="199.62" r="14.38"/><path d="M126.28,158.21,167,202.43c13.9-3.18,19.15-9.21,19.56-19.21-5.77-11.49-49.39-45.83-49.39-45.83C125.81,139.42,123.05,145.56,126.28,158.21Z"/><circle class="cls-3" cx="89.38" cy="80.87" r="74.38"/><circle class="cls-3" cx="16.88" cy="93.37" r="14.38"/><path class="cls-5" d="M102.5,86.5s7.5-3.75,10,0S110,94,110,94"/><path d="M63.12,118.37l87.5-16.25s-.62,35.63-33.12,40.63C76.43,149.06,63.12,118.37,63.12,118.37Z"/><path d="M64.38,67.75A10.62,10.62,0,0,0,55,83.37l6.25-3.12-3.62,6.33a10.62,10.62,0,1,0,6.75-18.83Z"/><path d="M131.88,56.5a10.62,10.62,0,0,0-9.38,15.62L128.75,69l-3.62,6.33a10.62,10.62,0,1,0,6.75-18.83Z"/><path class="cls-6" d="M36.25,61.5S33.75,97.75,35,107.75c-5-5-6.25-15-6.25-15-1.25,7.5-3.75,18.75-5,26.25-5-5-12.5-43.75-12.5-43.75Z"/><path class="cls-7" d="M147.5,22.75c-1.7-1.22-5.61-.9-8.92-1.59-8.94-8.43-33-26.45-69.83-19.66C34.74,7.76,23.16,32,19.33,45.21A50.45,50.45,0,0,0,12.5,49C6,53.65,10,75.25,12.5,79S65,54,92.5,49s67.48,8.92,68.75,0C162.5,40.25,156.88,29.44,147.5,22.75Z"/><circle class="cls-3" cx="256.88" cy="79.62" r="74.38"/><path class="cls-5" d="M273.75,77.75s7.5-3.75,10,0-2.5,7.5-2.5,7.5"/><path d="M239.38,56.5A10.62,10.62,0,0,0,230,72.12L236.25,69l-3.62,6.33a10.62,10.62,0,1,0,6.75-18.83Z"/><path class="cls-5" d="M232.5,62.75s-6.25,6.25-11.25,0"/><path d="M296.88,47.75a10.62,10.62,0,0,0-9.38,15.62l6.25-3.12-3.62,6.33a10.62,10.62,0,1,0,6.75-18.83Z"/><path class="cls-5" d="M309.68,46.25s-2,8.6-9.57,5.91"/><path class="cls-7" d="M267.81,112s.94-1.71,5.94-3,7.5,0,7.5,0a59.34,59.34,0,0,1,6.25-2.5,11.7,11.7,0,0,1,8.75,1.25Z"/><path class="cls-7" d="M276.25,124s3.75,5,7.5,5,7.85-8.33,7.85-8.33Z"/><path d="M266.88,112.12l30-5s-3.76,17.5-12.5,20S266.88,112.12,266.88,112.12Z"/><path d="M312.5,29S285,40.25,261.25,42.75s-55,0-55,0c-5,23.75-17.5,46.25-17.5,46.25l3.75,57.5c-10-20-10-28.75-10-28.75s1.25,26.25,0,36.25c-3.75-10-16.25-77.5-7.5-96.25,12.5-43.75,41.35-51.58,68.75-55C303.75-4.75,312.5,29,312.5,29Z"/><ellipse class="cls-3" cx="190" cy="82.75" rx="12.5" ry="13.75"/><circle class="cls-7" cx="186.88" cy="93.37" r="4.38"/><circle class="cls-3" cx="14.38" cy="210.87" r="14.38"/><circle class="cls-3" cx="350.63" cy="184.62" r="14.38"/><path class="cls-8" d="M338.66,300.88c1.53,10.66-60.82,19.61-62.35,8.95s11.19-21.3,28.4-23.77S337.12,290.22,338.66,300.88Z"/><path class="cls-8" d="M270.74,308.72c.15,10.77-62.82,11.65-63,.89s13.82-19.69,31.21-19.94S270.59,298,270.74,308.72Z"/><path class="cls-9" d="M107,305c.15,10.77-62.82,11.65-63,.89s13.82-19.69,31.21-19.94S106.84,294.21,107,305Z"/><path class="cls-9" d="M163.24,305c.15,10.77-62.82,11.65-63,.89s13.82-19.69,31.21-19.94S163.09,294.21,163.24,305Z"/></g></g></svg>