<svg xmlns="http://www.w3.org/2000/svg" xmlns:xlink="http://www.w3.org/1999/xlink" viewBox="0 0 247.37 303.59"><defs><style>.cls-1{fill:#edc196;}.cls-2{fill:#d4145a;}.cls-3{fill:url(#radial-gradient);}.cls-4{fill:red;}.cls-5{fill:#9e005d;}</style><radialGradient id="radial-gradient" cx="172.37" cy="80.59" r="17.34" gradientTransform="matrix(-1, 0, 0, 1, 317.32, 0)" gradientUnits="userSpaceOnUse"><stop offset="0" stop-color="#ffbce1"/><stop offset="0.08" stop-color="#febcde" stop-opacity="0.96"/><stop offset="0.23" stop-color="#fdbdd7" stop-opacity="0.86"/><stop offset="0.41" stop-color="#fabdcb" stop-opacity="0.7"/><stop offset="0.62" stop-color="#f6bfba" stop-opacity="0.47"/><stop offset="0.85" stop-color="#f0c0a4" stop-opacity="0.19"/><stop offset="1" stop-color="#edc196" stop-opacity="0"/></radialGradient></defs><title>girl</title><g id="Layer_2" data-name="Layer 2"><g id="Girl"><path class="cls-1" d="M67,46.33C76.1,24.49,68.12,13.5,56.73,14.6S30.15,24,34.89,36.89s17.28,21.7,17.28,21.7Z"/><path class="cls-2" d="M186.2,167.59c5.5,16,11,32-3.67,38s-103.59-71-111.84-92-25.67-47-24.75-57,17.42-14,25.67-9,22.92,48,32.08,55S186.2,167.59,186.2,167.59Z"/><path class="cls-1" d="M124.94,93.59c-17.91,1-18-2-40.67-15a79,79,0,1,1,6.21,38.5C90.69,117,119,109.53,124.94,93.59Z"/><circle class="cls-1" cx="91.44" cy="52.09" r="6.5"/><path d="M113.8,33.1c2.32-4.4,7.16-6.41,10.83-4.48s4.76,7.06,2.45,11.46a10.11,10.11,0,0,1-1.3,1.92l-4.84-2.41,1.53,5a7,7,0,0,1-6.21,0C112.59,42.63,111.49,37.5,113.8,33.1Z"/><circle class="cls-3" cx="144.94" cy="80.59" r="18"/><path class="cls-4" d="M84.37,78.59c5-1,21,10,25,11l16,4s-9.8,1.83-15.9-1.09S84.37,78.59,84.37,78.59Z"/><path class="cls-4" d="M125.37,93.59c0,3-5.06,12.89-14,18-7,4-19.67,7-21,6S114.37,111.59,125.37,93.59Z"/><path d="M130.77,37.35c-1.52,0-3.23-.31-3.84-1.54l.89-.45c.68,1.36,4.25,1,5.45.74l.2,1A14.75,14.75,0,0,1,130.77,37.35Z"/><path class="cls-5" d="M109.41,164.59c-8.47-2-9.47-12-2.47-17,9.09-6.49,83.48,2.41,91,9,8,7,5.29,10.72-3.85,16.36,11.85,9.64,38.85,124.64,33.85,130.64h-157C69.94,287.59,100.87,172.59,109.41,164.59Z"/><path d="M139.14,7.65c-19.51,10,42.08,82.44,42.08,82.44s-9.48,97-6.32,117c6.32-4,4.21-8,7.38-11,1.05,4,0,11,3.16,16,5.27-4,10.54-14,10.54-16,1.05,6,8.43,19,9.48,20,3.16-1,5.27-18,7.38-20,2.11,2,4.21,17,6.32,19,3.16-3,6.33-12,8.43-16,1.06,5,2.11,14,4.22,16,3.16-2,25.29-146,10.54-169S186.64-16.78,139.14,7.65Z"/><ellipse class="cls-1" cx="176.87" cy="88.09" rx="11.5" ry="12.5"/><path class="cls-1" d="M33,59.33C42.1,37.49,34.12,26.5,22.73,27.6S-3.85,37,.89,49.89s17.28,21.7,17.28,21.7Z"/><path class="cls-2" d="M162.94,178.59c6,16,12,32-4,38s-113-71-122-92-28-47-27-57,19-14,28-9,25,48,35,55S162.94,178.59,162.94,178.59Z"/></g></g></svg>