<svg xmlns="http://www.w3.org/2000/svg" viewBox="0 0 381.73 463.63"><defs><style>.cls-1{fill:none;stroke:#ffbc00;stroke-miterlimit:10;stroke-width:1.84px;}.cls-2{fill:red;}.cls-3{fill:#ff3838;}.cls-4{fill:#ff8383;}.cls-5{fill:#ffa4a4;}.cls-6{fill:#f7e00b;}.cls-7{fill:#ffbc00;}.cls-8{fill:#ffce00;}</style></defs><title>Lantern</title><g id="Layer_2" data-name="Layer 2"><g id="Lantern"><line class="cls-1" x1="190.86" y1="329.65" x2="190.86" y2="408.57"/><ellipse class="cls-2" cx="190.86" cy="174.58" rx="190.86" ry="142.23"/><ellipse class="cls-3" cx="190.86" cy="174.58" rx="152.69" ry="142.23"/><ellipse class="cls-4" cx="190.86" cy="174.58" rx="91.61" ry="142.23"/><ellipse class="cls-5" cx="190.86" cy="174.58" rx="36.65" ry="142.23"/><rect class="cls-6" x="113.78" y="18.29" width="154.16" height="26.28"/><rect class="cls-6" x="113.78" y="304.59" width="154.16" height="26.28"/><rect class="cls-7" x="113.78" y="330.57" width="1.84" height="43.13"/><rect class="cls-7" x="117.41" y="330.57" width="1.84" height="43.13"/><rect class="cls-7" x="121.04" y="330.57" width="1.84" height="43.13"/><rect class="cls-7" x="124.66" y="330.57" width="1.84" height="43.13"/><rect class="cls-7" x="128.29" y="330.57" width="1.84" height="43.13"/><rect class="cls-7" x="131.92" y="330.57" width="1.84" height="43.13"/><rect class="cls-7" x="135.54" y="330.57" width="1.84" height="43.13"/><rect class="cls-7" x="139.17" y="330.57" width="1.84" height="43.13"/><rect class="cls-7" x="142.8" y="330.57" width="1.84" height="43.13"/><rect class="cls-7" x="146.43" y="330.57" width="1.84" height="43.13"/><rect class="cls-7" x="150.05" y="330.57" width="1.84" height="43.13"/><rect class="cls-7" x="153.68" y="330.57" width="1.84" height="43.13"/><rect class="cls-7" x="157.31" y="330.57" width="1.84" height="43.13"/><rect class="cls-7" x="160.93" y="330.57" width="1.84" height="43.13"/><rect class="cls-7" x="164.56" y="330.57" width="1.84" height="43.13"/><rect class="cls-7" x="168.19" y="330.57" width="1.84" height="43.13"/><rect class="cls-7" x="171.81" y="330.57" width="1.84" height="43.13"/><rect class="cls-7" x="175.44" y="330.57" width="1.84" height="43.13"/><rect class="cls-7" x="179.07" y="330.57" width="1.84" height="43.13"/><rect class="cls-7" x="182.69" y="330.57" width="1.84" height="43.13"/><rect class="cls-7" x="186.32" y="330.57" width="1.84" height="43.13"/><rect class="cls-7" x="189.95" y="330.57" width="1.84" height="43.13"/><rect class="cls-7" x="193.57" y="330.57" width="1.84" height="43.13"/><rect class="cls-7" x="197.2" y="330.57" width="1.84" height="43.13"/><rect class="cls-7" x="200.83" y="330.57" width="1.84" height="43.13"/><rect class="cls-7" x="204.45" y="330.57" width="1.84" height="43.13"/><rect class="cls-7" x="208.08" y="330.57" width="1.84" height="43.13"/><rect class="cls-7" x="211.71" y="330.57" width="1.84" height="43.13"/><rect class="cls-7" x="215.33" y="330.57" width="1.84" height="43.13"/><rect class="cls-7" x="218.96" y="330.57" width="1.84" height="43.13"/><rect class="cls-7" x="222.59" y="330.57" width="1.84" height="43.13"/><rect class="cls-7" x="226.21" y="330.57" width="1.84" height="43.13"/><rect class="cls-7" x="229.84" y="330.57" width="1.84" height="43.13"/><rect class="cls-7" x="233.47" y="330.57" width="1.84" height="43.13"/><rect class="cls-7" x="237.09" y="330.57" width="1.84" height="43.13"/><rect class="cls-7" x="240.72" y="330.57" width="1.84" height="43.13"/><rect class="cls-7" x="244.35" y="330.57" width="1.84" height="43.13"/><rect class="cls-7" x="247.97" y="330.57" width="1.84" height="43.13"/><rect class="cls-7" x="251.6" y="330.57" width="1.84" height="43.13"/><rect class="cls-7" x="255.23" y="330.57" width="1.84" height="43.13"/><rect class="cls-7" x="258.86" y="330.57" width="1.84" height="43.13"/><rect class="cls-7" x="262.48" y="330.57" width="1.84" height="43.13"/><rect class="cls-7" x="266.11" y="330.57" width="1.84" height="43.13"/><rect class="cls-7" x="181.69" y="408.57" width="18.35" height="5.51"/><rect class="cls-2" x="181.69" y="414.07" width="18.35" height="5.51"/><rect class="cls-7" x="181.69" y="419.58" width="18.35" height="5.51"/><line class="cls-1" x1="182.61" y1="425.09" x2="182.61" y2="463.63"/><line class="cls-1" x1="185.91" y1="425.09" x2="185.91" y2="463.63"/><line class="cls-1" x1="189.21" y1="425.09" x2="189.21" y2="463.63"/><line class="cls-1" x1="192.52" y1="425.09" x2="192.52" y2="463.63"/><line class="cls-1" x1="195.82" y1="425.09" x2="195.82" y2="463.63"/><line class="cls-1" x1="199.12" y1="425.09" x2="199.12" y2="463.63"/><path class="cls-8" d="M301.44,286.53c-4.69,0-17,4.56-30.72,11.13a10.42,10.42,0,0,0-3.94.3,64.82,64.82,0,0,0-11.85,4.12c-1.39.61-2.69,1.24-4,1.88h-2.55c1.32-2.31,1.58-4.39.4-5.54-.82-.8-2.21-1-3.89-.78,3.23-6.56,2.74-11.11-1.94-11.11s-12.26,4.56-19.22,11.13c-2.72-.51-7.2,1.15-11.23,4.42a22.26,22.26,0,0,0-2.06,1.88h-1.12a8.07,8.07,0,0,0-.6-1.88,7.31,7.31,0,0,0-7.8-4.42c-1.86-6.57-5.9-11.13-10.58-11.13s-8.71,4.55-10.57,11.11a6.89,6.89,0,0,0-4.49.78,8.11,8.11,0,0,0-3.9,5.54h-.19a22.26,22.26,0,0,0-2.06-1.88c-4-3.27-8.51-4.93-11.23-4.42-7-6.57-14.53-11.13-19.22-11.13s-5.17,4.55-1.95,11.11c-1.67-.24-3.06,0-3.88.78-1.18,1.15-.92,3.23.4,5.54h-2.55c-1.27-.64-2.56-1.27-4-1.88A64.82,64.82,0,0,0,115,298a10.42,10.42,0,0,0-3.94-.3c-13.75-6.57-26-11.13-30.72-11.13-2.72,0-2.42,1.55.27,4.13a215,215,0,0,0,33.22,14.06v1.08H267.94v-1.08a214.6,214.6,0,0,0,33.22-14.06C303.86,288.08,304.16,286.53,301.44,286.53Z"/><path class="cls-8" d="M301.44,62.63c-4.69,0-17-4.57-30.72-11.14a10.22,10.22,0,0,1-3.94-.3,64.82,64.82,0,0,1-11.85-4.12c-1.39-.61-2.69-1.24-4-1.88h-2.55c1.32,2.32,1.58,4.39.4,5.54-.82.8-2.21,1-3.89.78,3.23,6.56,2.74,11.12-1.94,11.12s-12.26-4.57-19.22-11.14c-2.72.51-7.2-1.15-11.23-4.42a22.26,22.26,0,0,1-2.06-1.88h-1.12a8.07,8.07,0,0,1-.6,1.88,7.31,7.31,0,0,1-7.8,4.42c-1.86,6.57-5.9,11.14-10.58,11.14s-8.71-4.56-10.57-11.12a6.83,6.83,0,0,1-4.49-.78,8.09,8.09,0,0,1-3.9-5.54h-.19a22.26,22.26,0,0,1-2.06,1.88c-4,3.27-8.51,4.93-11.23,4.42-7,6.57-14.53,11.14-19.22,11.14s-5.17-4.56-1.95-11.12a4.53,4.53,0,0,1-3.88-.78c-1.18-1.15-.92-3.22.4-5.54h-2.55c-1.27.64-2.56,1.27-4,1.88A64.82,64.82,0,0,1,115,51.19a10.22,10.22,0,0,1-3.94.3C97.26,58.06,85,62.63,80.29,62.63c-2.72,0-2.42-1.56.27-4.14a216,216,0,0,1,33.22-14.06V43.36H267.94v1.07a215.57,215.57,0,0,1,33.22,14.06C303.86,61.07,304.16,62.63,301.44,62.63Z"/><ellipse class="cls-2" cx="190.86" cy="9.75" rx="9.18" ry="9.75"/></g></g></svg>