<svg xmlns="http://www.w3.org/2000/svg" viewBox="0 0 80 97.66"><defs><style>.cls-1,.cls-2,.cls-3{fill:#fff;}.cls-1,.cls-3{stroke:#fff;stroke-miterlimit:10;}.cls-1{stroke-width:0.38px;}</style></defs><title>lanternshadow</title><g id="Layer_2" data-name="Layer 2"><g id="blanternIcon"><line class="cls-1" x1="40" y1="69.59" x2="40" y2="86.13"/><ellipse class="cls-2" cx="40" cy="37.09" rx="39.5" ry="29.31"/><path class="cls-2" d="M40,8.28c21.5,0,39,12.92,39,28.81s-17.5,28.8-39,28.8S1,53,1,37.09,18.5,8.28,40,8.28m0-1C17.91,7.28,0,20.62,0,37.09s17.91,29.8,40,29.8,40-13.34,40-29.8S62.09,7.28,40,7.28Z"/><ellipse class="cls-2" cx="40" cy="37.09" rx="31.5" ry="29.31"/><path class="cls-2" d="M40,8.28c17.09,0,31,12.92,31,28.81s-13.91,28.8-31,28.8S9,53,9,37.09,22.91,8.28,40,8.28m0-1C22.33,7.28,8,20.62,8,37.09s14.33,29.8,32,29.8,32-13.34,32-29.8S57.67,7.28,40,7.28Z"/><ellipse class="cls-2" cx="40" cy="37.09" rx="18.7" ry="29.31"/><path class="cls-2" d="M40,8.28c10,0,18.2,12.92,18.2,28.81S50,65.89,40,65.89,21.8,53,21.8,37.09,30,8.28,40,8.28m0-1c-10.6,0-19.2,13.34-19.2,29.81s8.6,29.8,19.2,29.8,19.2-13.34,19.2-29.8S50.6,7.28,40,7.28Z"/><ellipse class="cls-2" cx="40" cy="37.09" rx="7.18" ry="29.31"/><path class="cls-2" d="M40,8.28c2.79,0,6.68,11,6.68,28.81S42.79,65.89,40,65.89s-6.68-11-6.68-28.8S37.21,8.28,40,8.28m0-1c-4.24,0-7.68,13.34-7.68,29.81s3.44,29.8,7.68,29.8,7.68-13.34,7.68-29.8S44.24,7.28,40,7.28Z"/><rect class="cls-3" x="23.85" y="4.33" width="32.31" height="5.51"/><rect class="cls-3" x="23.85" y="64.33" width="32.31" height="5.51"/><rect class="cls-3" x="23.85" y="69.78" width="0.38" height="9.04"/><rect class="cls-3" x="24.61" y="69.78" width="0.38" height="9.04"/><rect class="cls-3" x="25.37" y="69.78" width="0.38" height="9.04"/><rect class="cls-3" x="26.13" y="69.78" width="0.38" height="9.04"/><rect class="cls-3" x="26.89" y="69.78" width="0.38" height="9.04"/><rect class="cls-3" x="27.65" y="69.78" width="0.38" height="9.04"/><rect class="cls-3" x="28.41" y="69.78" width="0.38" height="9.04"/><rect class="cls-3" x="29.17" y="69.78" width="0.38" height="9.04"/><rect class="cls-3" x="29.93" y="69.78" width="0.38" height="9.04"/><rect class="cls-3" x="30.69" y="69.78" width="0.38" height="9.04"/><rect class="cls-3" x="31.45" y="69.78" width="0.38" height="9.04"/><rect class="cls-3" x="32.21" y="69.78" width="0.38" height="9.04"/><rect class="cls-3" x="32.97" y="69.78" width="0.38" height="9.04"/><rect class="cls-3" x="33.73" y="69.78" width="0.38" height="9.04"/><rect class="cls-3" x="34.49" y="69.78" width="0.38" height="9.04"/><rect class="cls-3" x="35.25" y="69.78" width="0.38" height="9.04"/><rect class="cls-3" x="36.01" y="69.78" width="0.38" height="9.04"/><rect class="cls-3" x="36.77" y="69.78" width="0.38" height="9.04"/><rect class="cls-3" x="37.53" y="69.78" width="0.38" height="9.04"/><rect class="cls-3" x="38.29" y="69.78" width="0.38" height="9.04"/><rect class="cls-3" x="39.05" y="69.78" width="0.38" height="9.04"/><rect class="cls-3" x="39.81" y="69.78" width="0.38" height="9.04"/><rect class="cls-3" x="40.57" y="69.78" width="0.38" height="9.04"/><rect class="cls-3" x="41.33" y="69.78" width="0.38" height="9.04"/><rect class="cls-3" x="42.09" y="69.78" width="0.38" height="9.04"/><rect class="cls-3" x="42.85" y="69.78" width="0.38" height="9.04"/><rect class="cls-3" x="43.61" y="69.78" width="0.38" height="9.04"/><rect class="cls-3" x="44.37" y="69.78" width="0.38" height="9.04"/><rect class="cls-3" x="45.13" y="69.78" width="0.38" height="9.04"/><rect class="cls-3" x="45.89" y="69.78" width="0.38" height="9.04"/><rect class="cls-3" x="46.65" y="69.78" width="0.38" height="9.04"/><rect class="cls-3" x="47.41" y="69.78" width="0.38" height="9.04"/><rect class="cls-3" x="48.17" y="69.78" width="0.38" height="9.04"/><rect class="cls-3" x="48.93" y="69.78" width="0.38" height="9.04"/><rect class="cls-3" x="49.69" y="69.78" width="0.38" height="9.04"/><rect class="cls-3" x="50.45" y="69.78" width="0.38" height="9.04"/><rect class="cls-3" x="51.21" y="69.78" width="0.38" height="9.04"/><rect class="cls-3" x="51.97" y="69.78" width="0.38" height="9.04"/><rect class="cls-3" x="52.73" y="69.78" width="0.38" height="9.04"/><rect class="cls-3" x="53.49" y="69.78" width="0.38" height="9.04"/><rect class="cls-3" x="54.25" y="69.78" width="0.38" height="9.04"/><rect class="cls-3" x="55.01" y="69.78" width="0.38" height="9.04"/><rect class="cls-3" x="55.77" y="69.78" width="0.38" height="9.04"/><rect class="cls-3" x="38.08" y="86.13" width="3.85" height="1.15"/><rect class="cls-3" x="38.08" y="87.28" width="3.85" height="1.15"/><rect class="cls-3" x="38.08" y="88.43" width="3.85" height="1.15"/><line class="cls-1" x1="38.27" y1="89.59" x2="38.27" y2="97.66"/><line class="cls-1" x1="38.96" y1="89.59" x2="38.96" y2="97.66"/><line class="cls-1" x1="39.65" y1="89.59" x2="39.65" y2="97.66"/><line class="cls-1" x1="40.35" y1="89.59" x2="40.35" y2="97.66"/><line class="cls-1" x1="41.04" y1="89.59" x2="41.04" y2="97.66"/><line class="cls-1" x1="41.73" y1="89.59" x2="41.73" y2="97.66"/><path class="cls-3" d="M63.17,60.55c-1,0-3.55,1-6.44,2.33a2.14,2.14,0,0,0-.82.07,13.19,13.19,0,0,0-2.48.86l-.83.39h-.54c.28-.48.34-.92.09-1.16a1,1,0,0,0-.82-.16c.68-1.38.58-2.33-.4-2.33s-2.57,1-4,2.33a3.43,3.43,0,0,0-2.36.93c-.15.13-.3.26-.43.39h-.23a2,2,0,0,0-.13-.39,1.53,1.53,0,0,0-1.63-.93c-.39-1.38-1.24-2.33-2.22-2.33s-1.82,1-2.22,2.33a1.44,1.44,0,0,0-.94.16,1.71,1.71,0,0,0-.81,1.16h0c-.13-.13-.28-.26-.43-.39a3.43,3.43,0,0,0-2.36-.93c-1.46-1.38-3-2.33-4-2.33s-1.08,1-.4,2.33a1,1,0,0,0-.82.16c-.25.24-.19.68.09,1.16H27.4l-.83-.39A13.19,13.19,0,0,0,24.09,63a2.14,2.14,0,0,0-.82-.07c-2.89-1.38-5.46-2.33-6.44-2.33-.57,0-.51.32.05.87a45.84,45.84,0,0,0,7,2.94v.23h32.3v-.23a45.84,45.84,0,0,0,7-2.94C63.68,60.87,63.74,60.55,63.17,60.55Z"/><path class="cls-3" d="M63.17,13.62c-1,0-3.55-.95-6.44-2.33a2.09,2.09,0,0,1-.82-.06,14,14,0,0,1-2.48-.86L52.6,10h-.54c.28.49.34.92.09,1.16a1,1,0,0,1-.82.17c.68,1.37.58,2.32-.4,2.32s-2.57-.95-4-2.33a3.41,3.41,0,0,1-2.36-.92,5.49,5.49,0,0,1-.43-.4h-.23a1.87,1.87,0,0,1-.13.4,1.52,1.52,0,0,1-1.63.92c-.39,1.38-1.24,2.33-2.22,2.33s-1.82-.95-2.22-2.32a1.44,1.44,0,0,1-.94-.17A1.69,1.69,0,0,1,35.93,10h0a5.49,5.49,0,0,1-.43.4,3.41,3.41,0,0,1-2.36.92c-1.46,1.38-3,2.33-4,2.33s-1.08-.95-.4-2.32a1,1,0,0,1-.82-.17c-.25-.24-.19-.67.09-1.16H27.4l-.83.4a14,14,0,0,1-2.48.86,2.09,2.09,0,0,1-.82.06c-2.89,1.38-5.46,2.33-6.44,2.33-.57,0-.51-.32.05-.86a44.88,44.88,0,0,1,7-2.95V9.59h32.3v.22a44.88,44.88,0,0,1,7,2.95C63.68,13.3,63.74,13.62,63.17,13.62Z"/><ellipse class="cls-3" cx="40" cy="2.54" rx="1.92" ry="2.04"/></g></g></svg>