<svg xmlns="http://www.w3.org/2000/svg" viewBox="0 0 80 97.16"><defs><style>.cls-1{fill:none;stroke:#ffbc00;stroke-miterlimit:10;stroke-width:0.38px;}.cls-2{fill:red;}.cls-3{fill:#ff3838;}.cls-4{fill:#ff8383;}.cls-5{fill:#ffa4a4;}.cls-6{fill:#f7e00b;}.cls-7{fill:#ffbc00;}.cls-8{fill:#ffce00;}</style></defs><title>LanternIcon</title><g id="Layer_2" data-name="Layer 2"><g id="LanternIcon"><line class="cls-1" x1="40" y1="69.09" x2="40" y2="85.63"/><ellipse class="cls-2" cx="40" cy="36.59" rx="40" ry="29.81"/><ellipse class="cls-3" cx="40" cy="36.59" rx="32" ry="29.81"/><ellipse class="cls-4" cx="40" cy="36.59" rx="19.2" ry="29.81"/><ellipse class="cls-5" cx="40" cy="36.59" rx="7.68" ry="29.81"/><rect class="cls-6" x="23.85" y="3.83" width="32.31" height="5.51"/><rect class="cls-6" x="23.85" y="63.83" width="32.31" height="5.51"/><rect class="cls-7" x="23.85" y="69.28" width="0.38" height="9.04"/><rect class="cls-7" x="24.61" y="69.28" width="0.38" height="9.04"/><rect class="cls-7" x="25.37" y="69.28" width="0.38" height="9.04"/><rect class="cls-7" x="26.13" y="69.28" width="0.38" height="9.04"/><rect class="cls-7" x="26.89" y="69.28" width="0.38" height="9.04"/><rect class="cls-7" x="27.65" y="69.28" width="0.38" height="9.04"/><rect class="cls-7" x="28.41" y="69.28" width="0.38" height="9.04"/><rect class="cls-7" x="29.17" y="69.28" width="0.38" height="9.04"/><rect class="cls-7" x="29.93" y="69.28" width="0.38" height="9.04"/><rect class="cls-7" x="30.69" y="69.28" width="0.38" height="9.04"/><rect class="cls-7" x="31.45" y="69.28" width="0.38" height="9.04"/><rect class="cls-7" x="32.21" y="69.28" width="0.38" height="9.04"/><rect class="cls-7" x="32.97" y="69.28" width="0.38" height="9.04"/><rect class="cls-7" x="33.73" y="69.28" width="0.38" height="9.04"/><rect class="cls-7" x="34.49" y="69.28" width="0.38" height="9.04"/><rect class="cls-7" x="35.25" y="69.28" width="0.38" height="9.04"/><rect class="cls-7" x="36.01" y="69.28" width="0.38" height="9.04"/><rect class="cls-7" x="36.77" y="69.28" width="0.38" height="9.04"/><rect class="cls-7" x="37.53" y="69.28" width="0.38" height="9.04"/><rect class="cls-7" x="38.29" y="69.28" width="0.38" height="9.04"/><rect class="cls-7" x="39.05" y="69.28" width="0.38" height="9.04"/><rect class="cls-7" x="39.81" y="69.28" width="0.38" height="9.04"/><rect class="cls-7" x="40.57" y="69.28" width="0.38" height="9.04"/><rect class="cls-7" x="41.33" y="69.28" width="0.38" height="9.04"/><rect class="cls-7" x="42.09" y="69.28" width="0.38" height="9.04"/><rect class="cls-7" x="42.85" y="69.28" width="0.38" height="9.04"/><rect class="cls-7" x="43.61" y="69.28" width="0.38" height="9.04"/><rect class="cls-7" x="44.37" y="69.28" width="0.38" height="9.04"/><rect class="cls-7" x="45.13" y="69.28" width="0.38" height="9.04"/><rect class="cls-7" x="45.89" y="69.28" width="0.38" height="9.04"/><rect class="cls-7" x="46.65" y="69.28" width="0.38" height="9.04"/><rect class="cls-7" x="47.41" y="69.28" width="0.38" height="9.04"/><rect class="cls-7" x="48.17" y="69.28" width="0.38" height="9.04"/><rect class="cls-7" x="48.93" y="69.28" width="0.38" height="9.04"/><rect class="cls-7" x="49.69" y="69.28" width="0.38" height="9.04"/><rect class="cls-7" x="50.45" y="69.28" width="0.38" height="9.04"/><rect class="cls-7" x="51.21" y="69.28" width="0.38" height="9.04"/><rect class="cls-7" x="51.97" y="69.28" width="0.38" height="9.04"/><rect class="cls-7" x="52.73" y="69.28" width="0.38" height="9.04"/><rect class="cls-7" x="53.49" y="69.28" width="0.38" height="9.04"/><rect class="cls-7" x="54.25" y="69.28" width="0.38" height="9.04"/><rect class="cls-7" x="55.01" y="69.28" width="0.38" height="9.04"/><rect class="cls-7" x="55.77" y="69.28" width="0.38" height="9.04"/><rect class="cls-7" x="38.08" y="85.63" width="3.85" height="1.15"/><rect class="cls-2" x="38.08" y="86.78" width="3.85" height="1.15"/><rect class="cls-7" x="38.08" y="87.93" width="3.85" height="1.15"/><line class="cls-1" x1="38.27" y1="89.09" x2="38.27" y2="97.16"/><line class="cls-1" x1="38.96" y1="89.09" x2="38.96" y2="97.16"/><line class="cls-1" x1="39.65" y1="89.09" x2="39.65" y2="97.16"/><line class="cls-1" x1="40.35" y1="89.09" x2="40.35" y2="97.16"/><line class="cls-1" x1="41.04" y1="89.09" x2="41.04" y2="97.16"/><line class="cls-1" x1="41.73" y1="89.09" x2="41.73" y2="97.16"/><path class="cls-8" d="M63.17,60.05c-1,0-3.55,1-6.44,2.33a2.14,2.14,0,0,0-.82.07,13.19,13.19,0,0,0-2.48.86l-.83.39h-.54c.28-.48.34-.92.09-1.16a1,1,0,0,0-.82-.16c.68-1.38.58-2.33-.4-2.33s-2.57,1-4,2.33a3.43,3.43,0,0,0-2.36.93c-.15.13-.3.26-.43.39h-.23a2,2,0,0,0-.13-.39,1.53,1.53,0,0,0-1.63-.93c-.39-1.38-1.24-2.33-2.22-2.33s-1.82,1-2.22,2.33a1.44,1.44,0,0,0-.94.16,1.71,1.71,0,0,0-.81,1.16h0c-.13-.13-.28-.26-.43-.39a3.43,3.43,0,0,0-2.36-.93c-1.46-1.38-3-2.33-4-2.33s-1.08,1-.4,2.33a1,1,0,0,0-.82.16c-.25.24-.19.68.09,1.16H27.4l-.83-.39a13.19,13.19,0,0,0-2.48-.86,2.14,2.14,0,0,0-.82-.07c-2.89-1.38-5.46-2.33-6.44-2.33-.57,0-.51.32.05.87a45.84,45.84,0,0,0,7,2.94v.23h32.3v-.23a45.84,45.84,0,0,0,7-2.94C63.68,60.37,63.74,60.05,63.17,60.05Z"/><path class="cls-8" d="M63.17,13.12c-1,0-3.55-.95-6.44-2.33a2.09,2.09,0,0,1-.82-.06,14,14,0,0,1-2.48-.86l-.83-.4h-.54c.28.49.34.92.09,1.16a1,1,0,0,1-.82.17c.68,1.37.58,2.32-.4,2.32s-2.57-.95-4-2.33a3.41,3.41,0,0,1-2.36-.92,5.49,5.49,0,0,1-.43-.4h-.23a1.87,1.87,0,0,1-.13.4,1.52,1.52,0,0,1-1.63.92c-.39,1.38-1.24,2.33-2.22,2.33s-1.82-.95-2.22-2.32a1.44,1.44,0,0,1-.94-.17,1.69,1.69,0,0,1-.81-1.16h0a5.49,5.49,0,0,1-.43.4,3.41,3.41,0,0,1-2.36.92c-1.46,1.38-3,2.33-4,2.33s-1.08-.95-.4-2.32a1,1,0,0,1-.82-.17c-.25-.24-.19-.67.09-1.16H27.4l-.83.4a14,14,0,0,1-2.48.86,2.09,2.09,0,0,1-.82.06c-2.89,1.38-5.46,2.33-6.44,2.33-.57,0-.51-.32.05-.86a44.88,44.88,0,0,1,7-2.95V9.09h32.3v.22a44.88,44.88,0,0,1,7,2.95C63.68,12.8,63.74,13.12,63.17,13.12Z"/><ellipse class="cls-2" cx="40" cy="2.04" rx="1.92" ry="2.04"/></g></g></svg>