<svg xmlns="http://www.w3.org/2000/svg" viewBox="0 0 102.6 104.11"><defs><style>.cls-1,.cls-10,.cls-14{fill:red;}.cls-2{fill:#fcee21;}.cls-3{fill:#b3b3b3;}.cls-4{fill:#f7931e;}.cls-5{fill:#ff0;}.cls-6{fill:#c1272d;}.cls-7{fill:#ed1c24;}.cls-11,.cls-12,.cls-15,.cls-8{fill:#fff;}.cls-10,.cls-11,.cls-12,.cls-13,.cls-14,.cls-15,.cls-8,.cls-9{stroke:#000;stroke-miterlimit:10;}.cls-8{stroke-width:5.81px;}.cls-10,.cls-11,.cls-9{stroke-width:0.05px;}.cls-12{stroke-width:3.77px;}.cls-13,.cls-14,.cls-15{stroke-width:0.03px;}</style></defs><title>LionIcon</title><g id="Layer_2" data-name="Layer 2"><g id="LionIcon"><path class="cls-1" d="M7.14,40.72c-.37-.21-.75-.44-1.11-.69C-.52,35.55-2,26.25,2.82,19.26s14-9,20.53-4.52c.36.25.7.51,1,.79Z"/><path class="cls-2" d="M21.09,16.14a12,12,0,0,0-11.67.22,13.64,13.64,0,0,0-4.63,4.25C1,26.18,1.8,33.49,6.52,37.42Z"/><ellipse class="cls-1" cx="53.67" cy="38.33" rx="41.4" ry="35.47"/><ellipse cx="41.56" cy="12.34" rx="9.21" ry="2.93" transform="translate(3.45 33) rotate(-45)"/><path class="cls-3" d="M35.75,18.26S31,2.54,26.66.09c8.83-.82,20.2,4.26,20.45,6.53S41.81,15,35.75,18.26Z"/><path class="cls-1" d="M93.4,41a16.13,16.13,0,0,0,1.43-.88c8.44-5.78,10.29-17.75,4.13-26.75S81,1.74,72.53,7.51c-.47.32-.91.67-1.34,1Z"/><path class="cls-2" d="M75.43,9.32a15.44,15.44,0,0,1,15,.28,17.71,17.71,0,0,1,6,5.47c4.92,7.17,3.85,16.59-2.23,21.66Z"/><path class="cls-4" d="M54.25,83.65,51,84.19c0-.34,0-.54,0-.54l-1.45.25H43.07c-2.27,6.84-1.26,15.24,0,17.67.76-1.08,1.41-3.86,1.93-6.9,0,4.26.65,7.89,1.35,9.42.78-1.27,1.45-4.6,2-8.2a26.14,26.14,0,0,0,2.73,8.22c.57-1.39.67-4.83.6-8.5a16.3,16.3,0,0,0,2.14,5.31C55.34,97.86,54.25,83.65,54.25,83.65Z"/><path class="cls-5" d="M94.91,46.28c5.2,3.63-6.58,39.4-41.66,40.37S3.65,62.23,4.48,55.47,94.91,46.28,94.91,46.28Z"/><path class="cls-6" d="M7,52.09v.21c0,15.5,17.4,28.06,38.87,28.06S84.72,67.8,84.72,52.3v-.21Z"/><path class="cls-7" d="M17.07,55.87V56c0,11.21,12.58,20.29,28.11,20.29S73.3,67.24,73.3,56v-.16Z"/><rect x="25.65" y="38.71" width="30.29" height="16.66"/><circle class="cls-8" cx="66.29" cy="34.42" r="14.39"/><circle class="cls-9" cx="65.16" cy="34.54" r="9.21"/><circle class="cls-10" cx="64.27" cy="34.92" r="4.8"/><circle class="cls-11" cx="64.15" cy="34.79" r="2.9"/><circle class="cls-12" cx="20.35" cy="40.22" r="9.34"/><circle class="cls-13" cx="19.61" cy="40.3" r="5.98"/><circle class="cls-14" cx="19.04" cy="40.55" r="3.11"/><circle class="cls-15" cx="18.95" cy="40.47" r="1.88"/><path class="cls-5" d="M91.85,35.16A6.26,6.26,0,0,0,90,31.86a3.13,3.13,0,0,0,1.32-2.49c0-2.53-16.67-17.93-27.77-15.15S50.39,30.63,39.28,33.66s-7.57-12.37-20.7-10.35c-7.49,1.15-11.93,6.57-14,11.91A4.58,4.58,0,0,0,2.66,38,7.21,7.21,0,0,0,3,41.82a9.38,9.38,0,0,0,.39,3.45c.93,2.52,2.62,3.43,4.24,3.41a17.76,17.76,0,0,0,13.19,4.41C34.13,52.38,28.38,40.54,39.8,41S55.23,52.14,66.62,52.4,92.22,37.2,91.85,35.16ZM20.21,46.67c-5-.14-7-3.08-8.06-5.94.47-3.86,1.73-8.26,6.93-9.6,4.12-1.05,8.45,4.11,12.69,7.29C28,41.75,24.46,46.79,20.21,46.67Zm46.68-1.29c-6.71-.48-15.39-5.77-17.47-8.23-.12-.13-.24-.26-.37-.38a5.6,5.6,0,0,0,.33-.59C51,32.79,58.55,24.58,65,22.55,73.11,20,78.92,30.88,83.46,32.4,79.66,35.22,75.25,46,66.89,45.38Z"/><path class="cls-5" d="M3.78,46.07c.85-.73,16.61,7.32,36.26,4.75,22-2.88,47.22-9.69,51.25-9.08,8.33,1.26,5,6.06-3.29,9.34-4.43,1.74-36.06,11.07-48.72,11.36-11.11.25-33.23-4.09-35.59-6.57C-1.36,50.57-.42,49.64,3.78,46.07Z"/><ellipse class="cls-1" cx="38.9" cy="29.24" rx="11.07" ry="7.67" transform="translate(-9.7 31.64) rotate(-39.76)"/><ellipse class="cls-5" cx="38.9" cy="29.24" rx="7.74" ry="5.36" transform="translate(-9.7 31.64) rotate(-39.76)"/><circle class="cls-1" cx="46.24" cy="46.33" r="6.68"/><path class="cls-6" d="M45.84,51.58c0,2.27,5-2.52,5-5.3S48.62,41,46.35,41s-5.55,2.78-5.55,4.29,2.77,4.8,5,4.8a3.65,3.65,0,0,0,3.54-3.79c0-1.77-1.52-3.79-3-3.79s-3.79,2-3.79,2.78,1.77,3.28,3.28,3a1.87,1.87,0,0,0,1.77-2,1.69,1.69,0,0,0-1.77-1.51c-1,0-1.26.5-1.26,1s.76-.51,1.26-.51,1.27.51,1.27,1a1.18,1.18,0,0,1-1.27,1.26,4.29,4.29,0,0,1-2.77-2.27c0-.5,2.77-2.27,3.28-2.27s2.52,2,2.52,3.28-1.76,2.78-3,2.78-4-2-4-3.54,1.76-3.78,4.54-3.78,3.79,3,3.79,4.54S47.11,50.82,45.84,51.58Z"/><circle class="cls-1" cx="33.36" cy="47.34" r="6.68"/><path class="cls-6" d="M33.75,52.59c0,2.27-5.05-2.52-5.05-5.3S31,42,33.25,42s5.55,2.78,5.55,4.29-2.78,4.8-5,4.8a3.65,3.65,0,0,1-3.53-3.79c0-1.77,1.51-3.79,3-3.79s3.78,2,3.78,2.78-1.76,3.28-3.28,3a1.88,1.88,0,0,1-1.77-2,1.69,1.69,0,0,1,1.77-1.51c1,0,1.26.5,1.26,1s-.75-.51-1.26-.51-1.26.51-1.26,1a1.17,1.17,0,0,0,1.26,1.26,4.31,4.31,0,0,0,2.78-2.27c0-.5-2.78-2.27-3.28-2.27s-2.53,2-2.53,3.28,1.77,2.78,3,2.78,4-2,4-3.54S36,42.75,33.25,42.75s-3.79,3-3.79,4.54S32.49,51.83,33.75,52.59Z"/></g></g></svg>