<svg xmlns="http://www.w3.org/2000/svg" viewBox="0 0 273.45 394.84"><defs><style>.cls-1{fill:#fbb03b;}.cls-2{fill:#ff0;}.cls-3{fill:#ed1c24;}.cls-4{fill:#f15a24;}.cls-5{fill:red;}.cls-6{fill:#edc196;}</style></defs><title>Lionbody</title><g id="Layer_2" data-name="Layer 2"><g id="Body"><path class="cls-1" d="M134.43,42.26s-8.1,98.38,28.34,129.41S275.33,353.9,242.13,366.45,55.07,414,55.07,366.45,0,62.07,0,62.07Z"/><path class="cls-2" d="M112.91,380.32l17.82-81.88,18.64,56.9c-13.92,5.06-23.26,14.35-23.26,25a19.76,19.76,0,0,0,3.66,11.19l91.29-13.34c-.67-5.56-3.9-10.69-9-14.94-6.52-47.32-27.21-116.29-27.21-116.29L68,253.54,53.8,364.35c-19.65,3.57-34,14.68-34,27.85a17.84,17.84,0,0,0,.2,2.64h94.67a17.85,17.85,0,0,0,.21-2.64,20,20,0,0,0-4.11-11.82Z"/><path class="cls-3" d="M39.34,170.05c-10.13-19.3,4.29-69.82,22.43-68.66s26,72.71,2,77.48S39.34,170.05,39.34,170.05Z"/><path class="cls-4" d="M65,115.22c-10.57,44.24-7.27,150.54-7.27,150.54s30.38,6.6,73.95,4.62,70-15.85,70-15.85S180.44,107.17,164,98.65,65,115.22,65,115.22Z"/><path class="cls-3" d="M164.41,153.18C146.58,140.64,136.35,89.1,153,81.86s56.29,52.83,37.14,68S164.41,153.18,164.41,153.18Z"/><path class="cls-5" d="M163.09,35s-30.38,41.6-14.53,108.29S202,369.75,243.64,366.45s27.07-25.09,28.39-78.57S163.09,35,163.09,35Z"/><ellipse class="cls-6" cx="91.45" cy="62.07" rx="71.64" ry="62.07"/></g></g></svg>