<svg xmlns="http://www.w3.org/2000/svg" viewBox="0 0 268.34 272.3"><defs><style>.cls-1,.cls-10,.cls-14{fill:red;}.cls-2{fill:#fcee21;}.cls-3{fill:#b3b3b3;}.cls-4{fill:#f7931e;}.cls-5{fill:#ff0;}.cls-6{fill:#c1272d;}.cls-7{fill:#ed1c24;}.cls-11,.cls-12,.cls-15,.cls-8{fill:#fff;}.cls-10,.cls-11,.cls-12,.cls-13,.cls-14,.cls-15,.cls-8,.cls-9{stroke:#000;stroke-miterlimit:10;}.cls-8{stroke-width:15.19px;}.cls-10,.cls-11,.cls-9{stroke-width:0.13px;}.cls-12{stroke-width:9.86px;}.cls-13,.cls-14,.cls-15{stroke-width:0.08px;}</style></defs><title>Lionhead</title><g id="Layer_2" data-name="Layer 2"><g id="LionHead"><path class="cls-1" d="M18.68,106.49c-1-.55-2-1.14-2.91-1.79C-1.37,93-5.12,68.65,7.39,50.38S43.92,26.82,61.06,38.55c.95.65,1.85,1.35,2.72,2.07Z"/><path class="cls-2" d="M55.16,42.21c-9.2-5.08-20.65-4.93-30.53.58a35.9,35.9,0,0,0-12.11,11.1c-10,14.58-7.81,33.69,4.53,44Z"/><ellipse class="cls-1" cx="140.37" cy="100.25" rx="108.28" ry="92.77"/><ellipse cx="108.71" cy="32.27" rx="24.1" ry="7.66" transform="translate(9.02 86.32) rotate(-45)"/><path class="cls-3" d="M93.49,47.75S81,6.64,69.72.23c23.11-2.14,52.83,11.15,53.48,17.09S109.34,39.17,93.49,47.75Z"/><path class="cls-1" d="M244.27,107.15c1.28-.71,2.54-1.47,3.76-2.31,22.07-15.1,26.9-46.42,10.79-69.95s-47-30.35-69.12-15.24c-1.22.84-2.39,1.74-3.5,2.67Z"/><path class="cls-2" d="M197.29,24.36c11.86-6.54,26.6-6.34,39.33.75a46.55,46.55,0,0,1,15.6,14.3c12.85,18.77,10,43.38-5.84,56.65Z"/><path class="cls-4" d="M141.88,218.79l-8.46,1.41c-.08-.91-.13-1.41-.13-1.41l-3.81.63H112.64c-5.94,17.91-3.3,39.87,0,46.22,2-2.83,3.7-10.08,5.06-18,.08,11.13,1.7,20.62,3.52,24.64,2-3.34,3.81-12.05,5.18-21.45,1.94,10,4.84,18.09,7.14,21.5,1.48-3.65,1.77-12.64,1.56-22.23,1.64,6.44,3.8,11.52,5.62,13.87C144.74,256,141.88,218.79,141.88,218.79Z"/><path class="cls-5" d="M248.22,121c13.62,9.49-17.2,103.05-108.94,105.58S9.56,162.77,11.71,145.07,248.22,121,248.22,121Z"/><path class="cls-6" d="M18.23,136.23c0,.19,0,.38,0,.57,0,40.53,45.53,73.38,101.68,73.38s101.68-32.85,101.68-73.38c0-.19,0-.38,0-.57Z"/><path class="cls-7" d="M44.64,146.13c0,.14,0,.28,0,.42,0,29.31,32.93,53.07,73.54,53.07s73.54-23.76,73.54-53.07c0-.14,0-.28,0-.42Z"/><rect x="67.08" y="101.24" width="79.23" height="43.58"/><circle class="cls-8" cx="173.39" cy="90.01" r="37.64"/><circle class="cls-9" cx="170.41" cy="90.34" r="24.1"/><circle class="cls-10" cx="168.1" cy="91.33" r="12.55"/><circle class="cls-11" cx="167.77" cy="91" r="7.59"/><circle class="cls-12" cx="53.22" cy="105.2" r="24.43"/><circle class="cls-13" cx="51.29" cy="105.41" r="15.64"/><circle class="cls-14" cx="49.79" cy="106.05" r="8.14"/><circle class="cls-15" cx="49.57" cy="105.84" r="4.93"/><path class="cls-5" d="M240.22,92a16.2,16.2,0,0,0-4.92-8.61,8.25,8.25,0,0,0,3.45-6.53c0-6.61-43.58-46.88-72.63-39.62S131.79,80.11,102.74,88,82.93,55.68,48.59,61C29,64,17.38,78.15,11.86,92.11A12,12,0,0,0,7,99.46c-.62,2.5-.29,6,1,9.91a24.05,24.05,0,0,0,1,9c2.42,6.59,6.85,9,11.08,8.92,7.94,7.1,19.41,12.36,34.49,11.54C89.27,137,74.22,106,104.1,107.24s40.34,29.13,70.13,29.8S241.19,97.3,240.22,92ZM52.85,122.06c-13.08-.37-18.26-8-21.07-15.54C33,96.43,36.31,84.93,49.91,81.43c10.76-2.77,22.1,10.74,33.18,19C73.27,109.18,64,122.37,52.85,122.06ZM175,118.69c-17.54-1.25-40.25-15.1-45.7-21.52a11.33,11.33,0,0,0-1-1,14.66,14.66,0,0,0,.87-1.55c4.2-8.87,24-30.35,40.93-35.65,21.13-6.6,36.32,21.79,48.2,25.75C208.36,92.13,196.81,120.25,175,118.69Z"/><path class="cls-5" d="M9.88,120.48c2.24-1.9,43.46,19.17,94.84,12.45,57.63-7.54,123.51-25.37,134-23.77,21.79,3.3,13.21,15.85-8.58,24.43-11.6,4.57-94.32,29-127.43,29.71-29.06.66-86.93-10.68-93.1-17.17C-3.57,132.27-1.1,129.83,9.88,120.48Z"/><ellipse class="cls-1" cx="101.75" cy="76.48" rx="28.97" ry="20.05" transform="translate(-25.38 82.76) rotate(-39.76)"/><ellipse class="cls-5" cx="101.75" cy="76.48" rx="20.24" ry="14.01" transform="translate(-25.38 82.76) rotate(-39.76)"/><circle class="cls-1" cx="120.93" cy="121.18" r="17.47"/><path class="cls-6" d="M119.9,134.91c0,5.94,13.21-6.6,13.21-13.87s-5.94-13.86-11.89-13.86-14.52,7.26-14.52,11.22S114,131,119.9,131s9.25-5.28,9.25-9.91-4-9.9-7.93-9.9-9.9,5.28-9.9,7.26,4.62,8.59,8.58,7.93,4.63-3.31,4.63-5.29-2-4-4.63-4-3.3,1.32-3.3,2.64,2-1.32,3.3-1.32,3.3,1.32,3.3,2.64a3.09,3.09,0,0,1-3.3,3.31c-2.64,0-7.26-4.63-7.26-5.95s7.26-5.94,8.58-5.94,6.61,5.28,6.61,8.58-4.63,7.27-7.93,7.27-10.56-5.29-10.56-9.25,4.62-9.9,11.88-9.9,9.91,7.92,9.91,11.88S123.2,132.93,119.9,134.91Z"/><circle class="cls-1" cx="87.25" cy="123.83" r="17.47"/><path class="cls-6" d="M88.27,137.55c0,5.94-13.2-6.6-13.2-13.87S81,109.82,87,109.82s14.53,7.26,14.53,11.22-7.26,12.55-13.21,12.55S79,128.31,79,123.68s4-9.9,7.92-9.9,9.91,5.28,9.91,7.26-4.62,8.59-8.59,7.93-4.62-3.3-4.62-5.29,2-4,4.62-4,3.31,1.32,3.31,2.64-2-1.32-3.31-1.32-3.3,1.32-3.3,2.64a3.08,3.08,0,0,0,3.3,3.31c2.65,0,7.27-4.63,7.27-5.95S88.27,115.1,87,115.1s-6.6,5.28-6.6,8.58S85,131,88.27,131s10.57-5.28,10.57-9.25-4.62-9.9-11.89-9.9-9.9,7.92-9.9,11.88S85,135.57,88.27,137.55Z"/></g></g></svg>