<svg xmlns="http://www.w3.org/2000/svg" viewBox="0 0 103.6 105.67"><defs><style>.cls-1,.cls-2,.cls-3,.cls-4,.cls-5{fill:#fff;stroke:#fff;stroke-miterlimit:10;}.cls-2{stroke-width:5.81px;}.cls-3{stroke-width:0.05px;}.cls-4{stroke-width:3.77px;}.cls-5{stroke-width:0.03px;}</style></defs><title>lionshadow</title><g id="Layer_2" data-name="Layer 2"><g id="blionIcon"><path class="cls-1" d="M7.64,41.22c-.37-.21-.75-.44-1.11-.69C0,36.05-1.46,26.75,3.32,19.76s14-9,20.53-4.52c.36.25.7.51,1,.79Z"/><path class="cls-1" d="M21.59,16.64a12,12,0,0,0-11.67.22,13.64,13.64,0,0,0-4.63,4.25C1.47,26.68,2.3,34,7,37.92Z"/><ellipse class="cls-1" cx="54.17" cy="38.83" rx="41.4" ry="35.47"/><ellipse class="cls-1" cx="42.06" cy="12.84" rx="9.21" ry="2.93" transform="translate(3.24 33.5) rotate(-45)"/><path class="cls-1" d="M36.25,18.76S31.45,3,27.16.59C36-.23,47.36,4.85,47.61,7.12S42.31,15.48,36.25,18.76Z"/><path class="cls-1" d="M93.9,41.47a16.13,16.13,0,0,0,1.43-.88c8.44-5.78,10.29-17.75,4.13-26.75S81.47,2.24,73,8c-.47.32-.91.67-1.34,1Z"/><path class="cls-1" d="M75.93,9.82a15.44,15.44,0,0,1,15,.28,17.71,17.71,0,0,1,6,5.47c4.92,7.17,3.85,16.59-2.23,21.66Z"/><path class="cls-1" d="M54.75,84.15l-3.24.54c0-.34,0-.54,0-.54L50,84.4H43.57c-2.27,6.84-1.26,15.24,0,17.67.76-1.08,1.41-3.86,1.93-6.9,0,4.26.65,7.89,1.35,9.42.78-1.27,1.45-4.6,2-8.2a26.14,26.14,0,0,0,2.73,8.22c.57-1.39.67-4.83.6-8.5a16.3,16.3,0,0,0,2.14,5.31C55.84,98.36,54.75,84.15,54.75,84.15Z"/><path class="cls-1" d="M95.41,46.78c5.2,3.63-6.58,39.4-41.66,40.37S4.15,62.73,5,56,95.41,46.78,95.41,46.78Z"/><path class="cls-1" d="M7.47,52.59v.21c0,15.5,17.4,28.06,38.87,28.06S85.22,68.3,85.22,52.8v-.21Z"/><path class="cls-1" d="M17.57,56.37v.16c0,11.21,12.58,20.29,28.11,20.29S73.8,67.74,73.8,56.53v-.16Z"/><rect class="cls-1" x="26.15" y="39.21" width="30.29" height="16.66"/><circle class="cls-2" cx="66.79" cy="34.92" r="14.39"/><circle class="cls-3" cx="65.66" cy="35.04" r="9.21"/><circle class="cls-3" cx="64.77" cy="35.42" r="4.8"/><circle class="cls-3" cx="64.65" cy="35.29" r="2.9"/><circle class="cls-4" cx="20.85" cy="40.72" r="9.34"/><circle class="cls-5" cx="20.11" cy="40.8" r="5.98"/><circle class="cls-5" cx="19.54" cy="41.05" r="3.11"/><circle class="cls-5" cx="19.45" cy="40.97" r="1.88"/><path class="cls-1" d="M92.35,35.66a6.26,6.26,0,0,0-1.88-3.3,3.13,3.13,0,0,0,1.32-2.49c0-2.53-16.67-17.93-27.77-15.15S50.89,31.13,39.78,34.16s-7.57-12.37-20.7-10.35C11.59,25,7.15,30.38,5,35.72a4.58,4.58,0,0,0-1.87,2.81,7.21,7.21,0,0,0,.38,3.79,9.38,9.38,0,0,0,.39,3.45c.93,2.52,2.62,3.43,4.24,3.41a17.76,17.76,0,0,0,13.19,4.41C34.63,52.88,28.88,41,40.3,41.5S55.73,52.64,67.12,52.9,92.72,37.7,92.35,35.66ZM20.71,47.17c-5-.14-7-3.08-8.06-5.94.47-3.86,1.73-8.26,6.93-9.6,4.12-1.05,8.45,4.11,12.69,7.29C28.51,42.25,25,47.29,20.71,47.17Zm46.68-1.29C60.68,45.4,52,40.11,49.92,37.65c-.12-.13-.24-.26-.37-.38a5.6,5.6,0,0,0,.33-.59c1.61-3.39,9.17-11.6,15.65-13.63C73.61,20.53,79.42,31.38,84,32.9,80.16,35.72,75.75,46.48,67.39,45.88Z"/><path class="cls-1" d="M4.28,46.57c.85-.73,16.61,7.32,36.26,4.75,22-2.88,47.22-9.69,51.25-9.08,8.33,1.26,5,6.06-3.29,9.34-4.43,1.74-36.06,11.07-48.72,11.36-11.11.25-33.23-4.09-35.59-6.57C-.86,51.07.08,50.14,4.28,46.57Z"/><ellipse class="cls-1" cx="39.4" cy="29.74" rx="11.07" ry="7.67" transform="translate(-9.91 32.08) rotate(-39.76)"/><ellipse class="cls-1" cx="39.4" cy="29.74" rx="7.74" ry="5.36" transform="translate(-9.91 32.08) rotate(-39.76)"/><circle class="cls-1" cx="46.74" cy="46.83" r="6.68"/><path class="cls-1" d="M46.34,52.08c0,2.27,5-2.52,5-5.3s-2.27-5.3-4.54-5.3-5.55,2.78-5.55,4.29,2.77,4.8,5,4.8a3.65,3.65,0,0,0,3.54-3.79c0-1.77-1.52-3.79-3-3.79s-3.79,2-3.79,2.78,1.77,3.28,3.28,3a1.87,1.87,0,0,0,1.77-2,1.69,1.69,0,0,0-1.77-1.51c-1,0-1.26.5-1.26,1s.76-.51,1.26-.51,1.27.51,1.27,1A1.18,1.18,0,0,1,46.34,48a4.29,4.29,0,0,1-2.77-2.27c0-.5,2.77-2.27,3.28-2.27s2.52,2,2.52,3.28-1.76,2.78-3,2.78-4-2-4-3.54,1.76-3.78,4.54-3.78,3.79,3,3.79,4.54S47.61,51.32,46.34,52.08Z"/><circle class="cls-1" cx="33.86" cy="47.84" r="6.68"/><path class="cls-1" d="M34.25,53.09c0,2.27-5.05-2.52-5.05-5.3s2.27-5.3,4.55-5.3,5.55,2.78,5.55,4.29-2.78,4.8-5,4.8a3.65,3.65,0,0,1-3.53-3.79c0-1.77,1.51-3.79,3-3.79s3.78,2,3.78,2.78-1.76,3.28-3.28,3a1.88,1.88,0,0,1-1.77-2,1.69,1.69,0,0,1,1.77-1.51c1,0,1.26.5,1.26,1s-.75-.51-1.26-.51-1.26.51-1.26,1a1.17,1.17,0,0,0,1.26,1.26A4.31,4.31,0,0,0,37,46.78c0-.5-2.78-2.27-3.28-2.27s-2.53,2-2.53,3.28,1.77,2.78,3,2.78,4-2,4-3.54-1.77-3.78-4.54-3.78S30,46.28,30,47.79,33,52.33,34.25,53.09Z"/></g></g></svg>