<svg xmlns="http://www.w3.org/2000/svg" xmlns:xlink="http://www.w3.org/1999/xlink" viewBox="0 0 311.99 375.21"><defs><style>.cls-1{fill:#c69c6d;}.cls-2{fill:#a67c52;}.cls-3{fill:url(#radial-gradient);}.cls-4{opacity:0.31;}</style><radialGradient id="radial-gradient" cx="155.34" cy="364.47" r="78.41" gradientTransform="translate(-132.72 -625.88) scale(1.78 2.71)" gradientUnits="userSpaceOnUse"><stop offset="0" stop-color="#ff0" stop-opacity="0.9"/><stop offset="0.21" stop-color="#f7931e" stop-opacity="0.75"/><stop offset="0.44" stop-color="#ed1c24" stop-opacity="0.5"/><stop offset="0.55" stop-color="#de302e" stop-opacity="0.39"/><stop offset="0.86" stop-color="#b66748" stop-opacity="0.11"/><stop offset="1" stop-color="#a67c52" stop-opacity="0"/></radialGradient></defs><title>skylantern</title><g id="Layer_2" data-name="Layer 2"><g id="FlyingLantern"><path class="cls-1" d="M5.79,60.09C55.87,25.56,106.62,12.8,160.29,0c67.3,27.48,119.24,60.5,151.15,95.19,6.19,59.08-40.89,204-58.47,256.25C222.43,374.19,208,375.09,156.06,375S87.74,371.21,44.58,352C18.08,288-13.11,104.62,5.79,60.09Z"/><path class="cls-2" d="M253,351.44c17.58-52.23,64.66-197.17,58.47-256.25C279.53,60.5,227.59,27.48,160.29,0l-.06,5.48c.26-.92.51-1.84.79-2.75-.28.91-.53,1.83-.79,2.75L156.06,375C208,375.09,222.43,374.19,253,351.44Z"/><path class="cls-3" d="M43.54,350.33c-24-65-50.53-197.37,105.23-198s123.77,152,103.77,199C223.54,381.33,101.54,385.33,43.54,350.33Z"/><g class="cls-4"><path class="cls-1" d="M5.79,60.09C55.87,25.56,106.62,12.8,160.29,0c67.3,27.48,119.24,60.5,151.15,95.19,6.19,59.08-40.89,204-58.47,256.25C222.43,374.19,208,375.09,156.06,375S87.74,371.21,44.58,352C18.08,288-13.11,104.62,5.79,60.09Z"/><path class="cls-2" d="M253,351.44c17.58-52.23,64.66-197.17,58.47-256.25C279.53,60.5,227.59,27.48,160.29,0l-.06,5.48c.26-.92.51-1.84.79-2.75-.28.91-.53,1.83-.79,2.75L156.06,375C208,375.09,222.43,374.19,253,351.44Z"/></g><path d="M4.54,87.94c7.91-3,3-12.35,10.37-14.81S31.21,79.54,27.75,84,10.47,96.83,10.47,102.26s8,12.74,18,8.34S43.06,97.82,41.09,95.84s-6.92,6.91-13.34,7.41-2-11.36,6.42-15.31,4.45-8.89,2.47-15.31S13.43,61.77,11,64.73,4.54,87.94,4.54,87.94Z"/><path d="M73.08,63.47c-2-10.76-14-23.1-23.52-17.48-11.43,6.72-8.74,8.74-4.71,26.89S51.57,102.46,61,100.44,75.1,74.22,73.08,63.47ZM62.17,80.26a36.58,36.58,0,0,1-2.78,8.3C57.7,84.24,56,76.35,54.69,70.69c-.6-2.71-1.16-5-1.66-7.09-.62-2.53-1.3-5.34-1.5-6.88a31.83,31.83,0,0,1,3.14-2h0c2.06,0,7.46,5.18,8.48,10.66C63.69,68.07,63.59,73.91,62.17,80.26Z"/><path d="M78.51,42.63c1.76,12.72-.33,33.13,8.68,43.64S95.61,90,96.8,84.36s1.39-51-5.41-54.28S78.51,42.63,78.51,42.63Z"/><path d="M140.25,52.49s1-4.13,4.06-14.51-9.05-18-17-16.62-16.2,6.86-16.26,13.6,12.21,15.71,12.21,15.71-14,8.69-16.63,17,13.67,16.93,25,15.23,19.23-10.51,19.77-19.31S140.25,52.49,140.25,52.49ZM125.37,29.61s9.23,5.22,9,10-3.7,3.7-8,.73S123,32.53,125.37,29.61Zm6.51,41.82c-6.67.61-7.34.67-10.56-5.1s0,0,6.8-6.68c0,0,12-1.09,13.23,4.85S138.56,70.82,131.88,71.43Z"/></g></g></svg>