<svg xmlns="http://www.w3.org/2000/svg" viewBox="0 0 921 397"><defs><style>.cls-1{fill:#754c24;}.cls-2{fill:#603813;}</style></defs><title>table</title><g id="Layer_2" data-name="Layer 2"><g id="table"><rect class="cls-1" x="435" y="345" width="47" height="52"/><rect class="cls-2" x="435" y="345" width="25" height="52"/><ellipse class="cls-1" cx="459" cy="346.5" rx="30" ry="14.5"/><path class="cls-2" d="M489,346.5c0,8-13.43,14.5-30,14.5s-30-6.49-30-14.5C443,354,473,355,489,346.5Z"/><path class="cls-1" d="M498,218.5C498,295,497,345,459,345c-39,0-39-50-39-126.5S437.46,80,459,80,498,142,498,218.5Z"/><path class="cls-2" d="M459,345c-39,0-39-50-39-126.5S437.46,80,459,80,497,345,459,345Z"/><g id="Tabletop"><path class="cls-2" d="M921,69c0,69-205.67,91-460,91S0,126,0,69C0,30.89,206.17,0,460.5,0S921,30.89,921,69Z"/><ellipse class="cls-1" cx="460.5" cy="69" rx="460.5" ry="69"/></g></g></g></svg>