<svg xmlns="http://www.w3.org/2000/svg" viewBox="0 0 353.42 243.09"><defs><style>.cls-1{fill:#fff;}.cls-2{fill:#e6e6e6;}.cls-3{fill:#ff7bac;}</style></defs><title>tanyang</title><g id="Layer_2" data-name="Layer 2"><g id="Spoon"><path class="cls-1" d="M351.77,3.82C334-21.89,225.7,90.25,186.43,97.87c-30.73,6-121-17.23-166.24,37.74-36.12,43.91-22.56,80.91,31,101C101,255.37,168.32,229.86,191.09,204c15.5-17.57,17.76-37.61,33-62.43S369.51,29.53,351.77,3.82ZM332.43,19.19A4.5,4.5,0,1,1,338,16.07,4.49,4.49,0,0,1,332.43,19.19Z"/><path class="cls-2" d="M183.33,150c-7.25,26-65.1,65.94-106.21,60.71-38.7-4.93-67.41-37.48-51.33-57.92s115-47,134.93-37.12C199,134.61,183.33,150,183.33,150Z"/><circle class="cls-3" cx="104" cy="127.31" r="39.5"/><circle class="cls-1" cx="134.06" cy="146.08" r="39.5"/><circle class="cls-3" cx="63.01" cy="162.6" r="39.5"/></g></g></svg>