<svg xmlns="http://www.w3.org/2000/svg" viewBox="0 0 963.64 549"><defs><style>.cls-1{fill:#c1272d;}.cls-2{fill:none;stroke:#ffbc00;stroke-miterlimit:10;stroke-width:0.58px;}.cls-3{fill:red;}.cls-4{fill:#ff3838;}.cls-5{fill:#ff8383;}.cls-6{fill:#ffa4a4;}.cls-7{fill:#f7e00b;}.cls-8{fill:#ffbc00;}.cls-9{fill:#ffce00;}.cls-10{fill:#ff0;}</style></defs><title>Title</title><g id="Layer_2" data-name="Layer 2"><g id="Title"><path class="cls-1" d="M130,202.54l9.08,41.61L29.55,238.84q0-17.49.66-35.2,2-53.12,2-59.09,0-13.28-2.88-65.74Q28,54.69,28,39.42H75.14Q67.83,74.84,63.86,98.51q-5.1,29.88-8.31,60.87A573.19,573.19,0,0,0,52.35,218Z"/><path class="cls-1" d="M179.39,213.82l-24.79.23A657.41,657.41,0,0,1,169,136.8,412.21,412.21,0,0,1,195.1,63.1l41.83-4q5.1,43.4,10,78.36,6,44,12,77.68h-31l-5.53-58L189.13,160Zm19.48-100.7,18.81-1.33L215,77.26l-6.64,4.65Z"/><path class="cls-1" d="M304.88,228.88l-.22,6.64-26.34,2.65q0-15.27,2.21-64.63,1.11-24.57,1.11-39.17,0-11.5-2.21-49.8-1.11-19-1.11-30.32L300,52.47a165.94,165.94,0,0,1,25,22.58,299.28,299.28,0,0,1,21.47,26.12l19.92,27.44q2-13.5,3.1-27.11t1.11-27.33a157.22,157.22,0,0,0-.78-16.72q-.78-7.19-2.77-19.14A62.4,62.4,0,0,1,389,42.74q0,12.84-.67,30.1-1.54,40.27-1.55,50.46,0,16.61,1.55,33.64t8,62.86l-32.54-2q-15-28.77-29.88-57.55-18.36-33.63-35-54,0,17,1.44,39.51t3,44.71Q304.88,212.71,304.88,228.88Z"/><path class="cls-1" d="M440.78,77.26l-31-.44-4.2-34.53,156.48-2.87-2.88,17.7L467.34,67.53l8.85,147.4H435.91Z"/><path class="cls-1" d="M572,42.74,673.17,37l.67,22.58a131.19,131.19,0,0,1-27.67,8q-4,.66-48.25,5.53l3.32,38.73,37.41-.44.44,35.19-42.72-1.11L598.59,197l55.55-2.65,2,23.46-85,1.11Z"/><path class="cls-1" d="M776.09,216.26l-37.62,2.43q.87-6,1.1-11.06t.22-12.18a135.33,135.33,0,0,0-3.32-31q-5.09-22.14-15.93-22.13a15,15,0,0,0-9.08,3.09l8.19,70.39H684q2.43-17.49,4.09-33.87a310.8,310.8,0,0,0,1.66-31.43q0-13.71-1.1-32.75t-2.11-38.18q-1-19.14-1-33.09A209.58,209.58,0,0,1,711.91,45q30.32,0,44,10.18,16.15,12,16.16,41.17,0,11.28-8.52,22.24T744,131.71q11.5,11.52,21.25,39.62A227.85,227.85,0,0,1,776.09,216.26Zm-63.3-153.6-1.33,58.65h3.1q11.3,0,15.27-2.21,5.1-2.88,7.53-13.06a62.86,62.86,0,0,0,1.77-14.39q0-12.84-6.75-19.92T712.79,62.66Z"/><path class="cls-1" d="M819,228.88l-.22,6.64-26.34,2.65q0-15.27,2.21-64.63,1.11-24.57,1.11-39.17,0-11.5-2.21-49.8-1.11-19-1.11-30.32l21.69-1.78a166.42,166.42,0,0,1,25,22.58,301.11,301.11,0,0,1,21.47,26.12l19.92,27.44q2-13.5,3.1-27.11t1.1-27.33A160.15,160.15,0,0,0,884,57.45q-.78-7.19-2.77-19.14a62.31,62.31,0,0,1,21.91,4.43q0,12.84-.66,30.1-1.54,40.27-1.55,50.46,0,16.61,1.55,33.64t8,62.86l-32.54-2Q862.86,189,848,160.26q-18.37-33.63-35-54,0,17,1.44,39.51t3,44.71Q819,212.71,819,228.88Z"/><path class="cls-1" d="M28.66,485.84q2.65-29.43,4-54.23T34,378.72q0-18.15-1-33.2t-3.43-35.86l105.35-2.88-6.42,24.13a272.54,272.54,0,0,0-36.74,2.65q-14.38,2-36.3,6.42l3.32,38.74,37.41-.45.44,35.19-42.72-.88q0,21,1.55,37.52a169.52,169.52,0,0,0,6.2,32.2Z"/><path class="cls-1" d="M145.75,308.33l101.15-5.75.66,22.57a130,130,0,0,1-27.67,8q-4,.66-48.25,5.53L175,377.39l37.41-.44.44,35.19L170.09,411l2.22,51.57L227.86,460l2,23.46-85,1.1Z"/><path class="cls-1" d="M306,321q12,0,23.24,11.29a82.5,82.5,0,0,1,15.27,22.13l-25.23,13.94.22-4a40.62,40.62,0,0,0-4.87-19q-5.76-11.07-14.83-11.07-9.3,0-13.72,7.08-3.54,5.76-3.54,15.94,0,20.58,16.82,42.49,15.48,18.6,31.21,37,17,22.35,17,42.71,0,23.91-22.8,35.19-17.71,8.85-44.49,8.86a260,260,0,0,1-39.95-2.88,147.37,147.37,0,0,1-35.52-10.18l11.95-14.83,23,6.42a82.55,82.55,0,0,0,21.91,3.32,112.07,112.07,0,0,0,33.2-4.65q21.69-6.65,21.69-20.58,0-6.19-14.83-23.47-19.92-23.24-27.66-36.74Q259.29,394,259.29,366.32q0-18.36,13.94-31.87T306,321Z"/><path class="cls-1" d="M402,342.86l-31-.44-4.21-34.53L523.33,305l-2.87,17.71-91.86,10.4,8.86,147.41H397.17Z"/><path class="cls-1" d="M559.85,389.78q0,21.92,2.22,46.48,1.54,17.72,5.53,46.48l-31.65.67q0-11.51.88-28.11,2-37.64,2-46.93,0-17.7-.78-32t-2.77-36.19q-1.1-11.06-3.54-33.86l32.32-2.43q-2.22,25.23-3.21,44.15T559.85,389.78Z"/><path class="cls-1" d="M659.67,328.25l35.19-4q-2.21,22.8-7.3,52-1.77,10.62-9.74,52.46-6.42,33.86-9.08,52.45l-41.83-4q-14.61-31.87-22.13-51.57a293.41,293.41,0,0,1-13.94-49.36q-4.44-23.89-4.43-54.22l31,6.41a279.5,279.5,0,0,0,3.55,45.27,347.12,347.12,0,0,0,10.62,44.82q5.31,17.7,15.49,44.48Z"/><path class="cls-1" d="M730.27,479.42l-24.79.22a659.29,659.29,0,0,1,14.39-77.24A411.44,411.44,0,0,1,746,328.7l41.83-4q5.08,43.38,10,78.35,6,44.06,12,77.69h-31l-5.53-58L740,425.64Zm19.48-100.7,18.81-1.33-2.65-34.53-6.64,4.65Z"/><path class="cls-1" d="M925.93,468.13,935,509.74l-109.56-5.31q0-17.48.66-35.19,2-53.12,2-59.09,0-13.29-2.88-65.74-1.34-24.12-1.33-39.4H871q-7.31,35.42-11.29,59.1-5.1,29.88-8.3,60.87a570.33,570.33,0,0,0-3.21,58.65Z"/><line class="cls-2" x1="910.28" y1="321.01" x2="913.91" y2="345.88"/><ellipse class="cls-3" cx="903.14" cy="272.15" rx="60.77" ry="45.29" transform="translate(-29.86 133.42) rotate(-8.31)"/><ellipse class="cls-4" cx="903.14" cy="272.15" rx="48.62" ry="45.29" transform="translate(-29.86 133.42) rotate(-8.31)"/><ellipse class="cls-5" cx="903.14" cy="272.15" rx="29.17" ry="45.29" transform="translate(-29.86 133.42) rotate(-8.31)"/><ellipse class="cls-6" cx="903.14" cy="272.15" rx="11.67" ry="45.29" transform="translate(-29.86 133.42) rotate(-8.31)"/><rect class="cls-7" x="872.01" y="222.87" width="49.09" height="8.37" transform="translate(-23.41 132) rotate(-8.31)"/><rect class="cls-7" x="885.19" y="313.07" width="49.09" height="8.37" transform="translate(-36.31 134.85) rotate(-8.31)"/><rect class="cls-8" x="887.02" y="324.74" width="0.58" height="13.73" transform="translate(-38.62 131.76) rotate(-8.31)"/><rect class="cls-8" x="888.17" y="324.57" width="0.58" height="13.73" transform="translate(-38.58 131.92) rotate(-8.31)"/><rect class="cls-8" x="889.31" y="324.4" width="0.58" height="13.73" transform="translate(-38.55 132.09) rotate(-8.31)"/><rect class="cls-8" x="890.45" y="324.24" width="0.58" height="13.73" transform="translate(-38.51 132.25) rotate(-8.31)"/><rect class="cls-8" x="891.59" y="324.07" width="0.58" height="13.73" transform="translate(-38.47 132.41) rotate(-8.31)"/><rect class="cls-8" x="892.74" y="323.9" width="0.58" height="13.73" transform="translate(-38.44 132.58) rotate(-8.31)"/><rect class="cls-8" x="893.88" y="323.74" width="0.58" height="13.73" transform="matrix(0.99, -0.14, 0.14, 0.99, -38.4, 132.74)"/><rect class="cls-8" x="895.02" y="323.57" width="0.58" height="13.73" transform="translate(-38.36 132.9) rotate(-8.31)"/><rect class="cls-8" x="896.17" y="323.4" width="0.58" height="13.73" transform="translate(-38.33 133.07) rotate(-8.31)"/><rect class="cls-8" x="897.31" y="323.23" width="0.58" height="13.73" transform="translate(-38.29 133.23) rotate(-8.31)"/><rect class="cls-8" x="898.45" y="323.07" width="0.58" height="13.73" transform="translate(-38.26 133.39) rotate(-8.31)"/><rect class="cls-8" x="899.59" y="322.9" width="0.58" height="13.73" transform="translate(-38.22 133.56) rotate(-8.31)"/><rect class="cls-8" x="900.74" y="322.73" width="0.58" height="13.73" transform="translate(-38.18 133.72) rotate(-8.31)"/><rect class="cls-8" x="901.88" y="322.57" width="0.58" height="13.73" transform="translate(-38.15 133.89) rotate(-8.31)"/><rect class="cls-8" x="903.02" y="322.4" width="0.58" height="13.73" transform="translate(-38.11 134.05) rotate(-8.31)"/><rect class="cls-8" x="904.16" y="322.23" width="0.58" height="13.73" transform="translate(-38.08 134.21) rotate(-8.31)"/><rect class="cls-8" x="905.31" y="322.07" width="0.58" height="13.73" transform="translate(-38.04 134.38) rotate(-8.31)"/><rect class="cls-8" x="906.45" y="321.9" width="0.58" height="13.73" transform="translate(-38 134.54) rotate(-8.31)"/><rect class="cls-8" x="907.59" y="321.73" width="0.58" height="13.73" transform="translate(-37.97 134.7) rotate(-8.31)"/><rect class="cls-8" x="908.74" y="321.57" width="0.58" height="13.73" transform="translate(-37.93 134.87) rotate(-8.31)"/><rect class="cls-8" x="909.88" y="321.4" width="0.58" height="13.73" transform="translate(-37.89 135.03) rotate(-8.31)"/><rect class="cls-8" x="911.02" y="321.23" width="0.58" height="13.73" transform="matrix(0.99, -0.14, 0.14, 0.99, -37.86, 135.19)"/><rect class="cls-8" x="912.16" y="321.06" width="0.58" height="13.73" transform="matrix(0.99, -0.14, 0.14, 0.99, -37.82, 135.36)"/><rect class="cls-8" x="913.31" y="320.9" width="0.58" height="13.73" transform="translate(-37.79 135.52) rotate(-8.31)"/><rect class="cls-8" x="914.45" y="320.73" width="0.58" height="13.73" transform="translate(-37.75 135.68) rotate(-8.31)"/><rect class="cls-8" x="915.59" y="320.56" width="0.58" height="13.73" transform="translate(-37.71 135.85) rotate(-8.31)"/><rect class="cls-8" x="916.73" y="320.4" width="0.58" height="13.73" transform="translate(-37.68 136.01) rotate(-8.31)"/><rect class="cls-8" x="917.88" y="320.23" width="0.58" height="13.73" transform="translate(-37.64 136.17) rotate(-8.31)"/><rect class="cls-8" x="919.02" y="320.06" width="0.58" height="13.73" transform="translate(-37.61 136.34) rotate(-8.31)"/><rect class="cls-8" x="920.16" y="319.9" width="0.58" height="13.73" transform="translate(-37.57 136.5) rotate(-8.31)"/><rect class="cls-8" x="921.3" y="319.73" width="0.58" height="13.73" transform="translate(-37.53 136.66) rotate(-8.31)"/><rect class="cls-8" x="922.45" y="319.56" width="0.58" height="13.73" transform="translate(-37.5 136.83) rotate(-8.31)"/><rect class="cls-8" x="923.59" y="319.39" width="0.58" height="13.73" transform="translate(-37.46 136.99) rotate(-8.31)"/><rect class="cls-8" x="924.73" y="319.23" width="0.58" height="13.73" transform="matrix(0.99, -0.14, 0.14, 0.99, -37.43, 137.15)"/><rect class="cls-8" x="925.88" y="319.06" width="0.58" height="13.73" transform="matrix(0.99, -0.14, 0.14, 0.99, -37.39, 137.32)"/><rect class="cls-8" x="927.02" y="318.89" width="0.58" height="13.73" transform="matrix(0.99, -0.14, 0.14, 0.99, -37.35, 137.48)"/><rect class="cls-8" x="928.16" y="318.73" width="0.58" height="13.73" transform="translate(-37.32 137.64) rotate(-8.31)"/><rect class="cls-8" x="929.3" y="318.56" width="0.58" height="13.73" transform="translate(-37.28 137.81) rotate(-8.31)"/><rect class="cls-8" x="930.45" y="318.39" width="0.58" height="13.73" transform="translate(-37.24 137.97) rotate(-8.31)"/><rect class="cls-8" x="931.59" y="318.23" width="0.58" height="13.73" transform="translate(-37.21 138.13) rotate(-8.31)"/><rect class="cls-8" x="932.73" y="318.06" width="0.58" height="13.73" transform="matrix(0.99, -0.14, 0.14, 0.99, -37.17, 138.3)"/><rect class="cls-8" x="933.87" y="317.89" width="0.58" height="13.73" transform="translate(-37.14 138.46) rotate(-8.31)"/><rect class="cls-8" x="935.02" y="317.73" width="0.58" height="13.73" transform="translate(-37.1 138.62) rotate(-8.31)"/><rect class="cls-8" x="911.12" y="345.87" width="5.84" height="1.75" transform="translate(-40.53 135.78) rotate(-8.31)"/><rect class="cls-3" x="911.37" y="347.6" width="5.84" height="1.75" transform="translate(-40.77 135.84) rotate(-8.31)"/><rect class="cls-8" x="911.62" y="349.34" width="5.84" height="1.75" transform="translate(-41.02 135.89) rotate(-8.31)"/><line class="cls-2" x1="912.07" y1="351.46" x2="913.84" y2="363.6"/><line class="cls-2" x1="913.11" y1="351.31" x2="914.88" y2="363.45"/><line class="cls-2" x1="914.15" y1="351.16" x2="915.92" y2="363.3"/><line class="cls-2" x1="915.19" y1="351.01" x2="916.97" y2="363.15"/><line class="cls-2" x1="916.23" y1="350.85" x2="918.01" y2="363"/><line class="cls-2" x1="917.27" y1="350.7" x2="919.05" y2="362.84"/><path class="cls-9" d="M943.13,302.34c-1.48.21-5.14,2.22-9.17,4.92a3.5,3.5,0,0,0-1.22.27,21.22,21.22,0,0,0-3.55,1.85c-.41.25-.79.51-1.15.77l-.81.12c.31-.79.3-1.46-.13-1.76a1.41,1.41,0,0,0-1.26-.07c.72-2.22.35-3.63-1.12-3.41s-3.65,2-5.54,4.39a5.1,5.1,0,0,0-3.34,1.91,6.78,6.78,0,0,0-.56.69l-.35.05a2.51,2.51,0,0,0-.28-.57,2.33,2.33,0,0,0-2.66-1c-.89-2-2.37-3.24-3.85-3s-2.53,1.83-2.82,4a2.13,2.13,0,0,0-1.37.45,2.57,2.57,0,0,0-1,1.92h-.06a8.46,8.46,0,0,0-.73-.5,5.16,5.16,0,0,0-3.75-.87c-2.49-1.75-5.09-2.84-6.56-2.62s-1.42,1.67-.1,3.59a1.45,1.45,0,0,0-1.19.42c-.32.42-.14,1.06.38,1.73l-.81.12c-.42-.15-.86-.29-1.33-.42a21.44,21.44,0,0,0-3.92-.75,3.32,3.32,0,0,0-1.25.09c-4.64-1.44-8.72-2.31-10.2-2.09-.85.12-.69.6.28,1.29a69.84,69.84,0,0,0,11.11,2.9l0,.34,1.05-.16,4.66-.68.76-.11h.07L903,314.4l.51-.07,11.36-1.66.21,0,11.86-1.74H927l.76-.11,4.66-.68,1-.15,0-.34a68.64,68.64,0,0,0,9.81-6C944,302.71,944,302.21,943.13,302.34Z"/><path class="cls-9" d="M932.82,231.79c-1.47.22-5.55-.65-10.19-2.09a3.37,3.37,0,0,1-1.25.08,20.06,20.06,0,0,1-3.93-.75c-.46-.13-.9-.27-1.33-.41l-.8.12c.52.67.7,1.31.38,1.73a1.45,1.45,0,0,1-1.19.42c1.32,1.92,1.38,3.38-.1,3.59s-4.07-.87-6.57-2.62a5.16,5.16,0,0,1-3.74-.88,6.63,6.63,0,0,1-.73-.49l-.36,0a2.76,2.76,0,0,1-.1.62,2.32,2.32,0,0,1-2.25,1.75c-.29,2.15-1.35,3.78-2.82,4s-3-1-3.85-3a2.19,2.19,0,0,1-1.45,0,2.61,2.61,0,0,1-1.48-1.57H891a8.48,8.48,0,0,1-.56.69,5.21,5.21,0,0,1-3.34,1.91c-1.89,2.39-4.06,4.18-5.54,4.39s-1.84-1.19-1.13-3.41a1.42,1.42,0,0,1-1.25-.07c-.43-.31-.44-1-.13-1.76l-.81.12c-.37.26-.75.51-1.15.77a21.05,21.05,0,0,1-3.55,1.84,3.34,3.34,0,0,1-1.23.28c-4,2.7-7.69,4.71-9.16,4.92-.86.13-.84-.38-.11-1.31a67.85,67.85,0,0,1,9.82-6l-.05-.34,1.05-.15,4.66-.68.76-.12h.07l11.56-1.69.51-.07L902.78,230l.2,0,11.87-1.73h.07l.76-.11,4.65-.68,1-.16,0,.34a68.63,68.63,0,0,1,11.12,2.9C933.51,231.19,933.68,231.67,932.82,231.79Z"/><ellipse class="cls-3" cx="895.55" cy="220.22" rx="2.92" ry="3.1" transform="translate(-22.43 131.78) rotate(-8.31)"/><rect class="cls-10" width="935" height="20"/><rect class="cls-10" x="1" y="529" width="935" height="20"/></g></g></svg>