<svg xmlns="http://www.w3.org/2000/svg" xmlns:xlink="http://www.w3.org/1999/xlink" viewBox="0 0 263.74 110.4"><defs><style>.cls-1{fill:url(#linear-gradient);}.cls-2{fill:url(#linear-gradient-2);}.cls-3{fill:url(#linear-gradient-3);}.cls-4{fill:url(#linear-gradient-4);}</style><linearGradient id="linear-gradient" x1="-220.9" y1="-84" x2="-220.9" y2="26.4" gradientUnits="userSpaceOnUse"><stop offset="0" stop-color="#fcee21"/><stop offset="1" stop-color="#f7931e"/></linearGradient><linearGradient id="linear-gradient-2" x1="-133.3" y1="-36.52" x2="-133.3" y2="12.08" xlink:href="#linear-gradient"/><linearGradient id="linear-gradient-3" x1="-88.55" y1="-38.14" x2="-88.55" y2="11.36" xlink:href="#linear-gradient"/><linearGradient id="linear-gradient-4" x1="-45.23" y1="-46.6" x2="-45.23" y2="12.44" xlink:href="#linear-gradient"/></defs><title>Year</title><g id="Layer_2" data-name="Layer 2"><g id="_2018" data-name="2018"><path class="cls-1" d="M-165.6-16.4q-1,1.8-2.7,5.7a76.38,76.38,0,0,1-4.5,8.6,94.15,94.15,0,0,1-6.8,9.8,51.27,51.27,0,0,1-9.4,9.2,50.34,50.34,0,0,1-12.4,6.8,44.24,44.24,0,0,1-16,2.7,37.53,37.53,0,0,1-12.1-2q-5.9-2-11.7-4.4t-11.7-4.4a37.53,37.53,0,0,0-12.1-2c-2.53,0-4.27.67-5.2,2a19.75,19.75,0,0,0-2.3,4.4,19.75,19.75,0,0,1-2.3,4.4c-.93,1.33-2.67,2-5.2,2a2.79,2.79,0,0,1-2.2-.9,2.84,2.84,0,0,1-.8-1.9,4.82,4.82,0,0,1,.8-2.5,14.77,14.77,0,0,1,3.6-3.4q2.81-2.1,8.5-5.7t15.3-9.6A189.93,189.93,0,0,1-238-6.9q8.4-4.1,16.1-7.8t14.2-7.4a55.5,55.5,0,0,0,11.4-8.5,34.61,34.61,0,0,0,7.6-11A36.34,36.34,0,0,0-186-56.2a31.92,31.92,0,0,0-1.3-9.3A23.9,23.9,0,0,0-191-73a17.84,17.84,0,0,0-6-5.1,17.7,17.7,0,0,0-8.4-1.9,25.49,25.49,0,0,0-9.6,1.7,23,23,0,0,0-7.2,4.5,19.32,19.32,0,0,0-4.6,6.5,19.15,19.15,0,0,0-1.6,7.7,15.25,15.25,0,0,0,3.6,10.1,11.46,11.46,0,0,0,9.2,4.3,13.66,13.66,0,0,0,6.8-1.4c1.6-.93,2.73-2.67,3.4-5.2h1a22.78,22.78,0,0,1-2,8.4,23.31,23.31,0,0,1-4.8,7,21.63,21.63,0,0,1-7.1,4.7A22.52,22.52,0,0,1-227-30a17,17,0,0,1-12.8-5.2q-5-5.2-5-13.6a29.69,29.69,0,0,1,3.1-13.3,35.3,35.3,0,0,1,8.8-11.2,43.18,43.18,0,0,1,13.8-7.8A54.14,54.14,0,0,1-200.8-84q19.8,0,30.9,7.1t11.1,20.5q0,10.2-4.8,17.2a42.3,42.3,0,0,1-12.6,11.9,88.45,88.45,0,0,1-17.7,8.4q-9.9,3.49-20,6.7t-19.6,6.5a73.45,73.45,0,0,0-16.7,8.1v.4q3.8-.79,6.8-1.2a47.88,47.88,0,0,1,6.4-.4,49.48,49.48,0,0,1,10.2,1.1q5.2,1.09,10.3,2.5t10.1,2.5A44.06,44.06,0,0,0-197,8.4q10.6,0,17.5-7t12.3-18.8Z" transform="translate(283 84)"/><path class="cls-2" d="M-109.27-22.12a27.21,27.21,0,0,1-1.48,8.82,35.86,35.86,0,0,1-4,8.1,42.12,42.12,0,0,1-5.75,7,40.69,40.69,0,0,1-6.94,5.5,35.52,35.52,0,0,1-7.44,3.55,22.81,22.81,0,0,1-7.24,1.26q-8,0-11.63-3.6t-3.6-9.81a28.44,28.44,0,0,1,3.05-12.55,44.79,44.79,0,0,1,7.83-11.3,42.1,42.1,0,0,1,10.61-8.19,24.11,24.11,0,0,1,11.51-3.15,18.78,18.78,0,0,1,5.41.81A14.13,14.13,0,0,1-114-33.15a13,13,0,0,1,3.47,4.5A15.12,15.12,0,0,1-109.27-22.12Zm-11-.18a34.7,34.7,0,0,0-.3-4.59,15.79,15.79,0,0,0-1-4,7.21,7.21,0,0,0-2-2.79,4.79,4.79,0,0,0-3.17-1A9.49,9.49,0,0,0-132.11-33a21.45,21.45,0,0,0-4.74,4.45,34.57,34.57,0,0,0-3.94,6.26,58.89,58.89,0,0,0-3,7.15,57,57,0,0,0-1.9,7,30.84,30.84,0,0,0-.68,6q0,6.12,1.82,9.27a5.65,5.65,0,0,0,5.12,3.15,9.66,9.66,0,0,0,5.5-1.71A19.2,19.2,0,0,0-129.24,4a36.61,36.61,0,0,0,3.77-6.34,60.84,60.84,0,0,0,2.83-7.16,52,52,0,0,0,1.78-7A34.75,34.75,0,0,0-120.27-22.3Z" transform="translate(283 84)"/><path class="cls-3" d="M-106.23-20.14a114.24,114.24,0,0,0,19.29-6.93A79.44,79.44,0,0,0-69.51-38.14l.68.54q-3.39,6-7.15,12.47T-83.3-12.4Q-86.85-6.1-89.94-.25t-5.2,10.71l-13.12.9Q-102.68,2.18-97.6-7.4t10.41-18.23l-.17-.18q-4.4,2.25-9.1,4.1A99.2,99.2,0,0,1-106-18.52Z" transform="translate(283 84)"/><path class="cls-4" d="M-34.66-17.71a9.86,9.86,0,0,0,5.93-5.4,21.62,21.62,0,0,0,1.52-8.28,16.78,16.78,0,0,0-.64-4.36,19.21,19.21,0,0,0-1.82-4.5,12.36,12.36,0,0,0-2.87-3.52,6,6,0,0,0-3.89-1.39,6.28,6.28,0,0,0-3.56.95,7,7,0,0,0-2.28,2.42,10.89,10.89,0,0,0-1.19,3.42,22.87,22.87,0,0,0-.33,3.83,17.36,17.36,0,0,0,1.52,7.25c1,2.25,2.11,4.45,3.3,6.61s2.28,4.35,3.3,6.57a17.4,17.4,0,0,1,1.52,7.29A17.64,17.64,0,0,1-36,1.55a19,19,0,0,1-5,6,21.33,21.33,0,0,1-6.81,3.65,24.28,24.28,0,0,1-7.49,1.21,19,19,0,0,1-6.39-1,14.1,14.1,0,0,1-5-3A14,14,0,0,1-70,3.67,15.43,15.43,0,0,1-71.2-2.5a16.28,16.28,0,0,1,1.73-7.65,19.18,19.18,0,0,1,4.53-5.72,23.37,23.37,0,0,1,6.3-3.82,27.71,27.71,0,0,1,7.06-1.89,25.7,25.7,0,0,1-1.35-4.14,19.13,19.13,0,0,1-.51-4.41,14.22,14.22,0,0,1,1.61-6.79,17.29,17.29,0,0,1,4.19-5.18,19.17,19.17,0,0,1,5.79-3.33,18.94,18.94,0,0,1,6.52-1.17,21.69,21.69,0,0,1,6.34.9,13.68,13.68,0,0,1,5.12,2.79,12.94,12.94,0,0,1,3.38,4.72,16.57,16.57,0,0,1,1.23,6.62,12.54,12.54,0,0,1-1.35,5.85,14.35,14.35,0,0,1-3.56,4.45,16.55,16.55,0,0,1-4.95,2.89,19.06,19.06,0,0,1-5.54,1.21ZM-62.57-5.38A26.5,26.5,0,0,0-62,0a22.09,22.09,0,0,0,1.77,5.31,12.64,12.64,0,0,0,3.05,4.05A6.49,6.49,0,0,0-52.76,11,7.87,7.87,0,0,0-48.4,9.88,8.39,8.39,0,0,0-45.65,7a13.26,13.26,0,0,0,1.43-4,21.82,21.82,0,0,0,.43-4.32,18.21,18.21,0,0,0-.76-5.22,32.92,32.92,0,0,0-1.91-4.86Q-47.6-13.75-48.87-16t-2.37-4.5a12.43,12.43,0,0,0-8.5,5.08A17.24,17.24,0,0,0-62.57-5.38Z" transform="translate(283 84)"/></g></g></svg>