<svg xmlns="http://www.w3.org/2000/svg" viewBox="0 0 130.39 89.69"><defs><style>.cls-1{fill:#fff;}</style></defs><title>yuanshadow</title><g id="Layer_2" data-name="Layer 2"><g id="byuanIcon"><path class="cls-1" d="M129.78,1.41c-6.55-9.49-46.51,31.89-61,34.7C57.44,38.31,24.13,29.75,7.45,50-5.88,66.23-.88,79.88,18.89,87.31c18.38,6.91,43.21-2.51,51.61-12,5.72-6.48,6.55-13.88,12.17-23S136.33,10.9,129.78,1.41Zm-7.14,5.67a1.66,1.66,0,1,1,2-1.15A1.66,1.66,0,0,1,122.64,7.08Z"/><path class="cls-1" d="M67.64,55.32c-2.68,9.6-24,24.33-39.19,22.4C14.18,75.9,3.58,63.89,9.52,56.35S52,39,59.3,42.66C73.43,49.66,67.64,55.32,67.64,55.32Z"/><circle class="cls-1" cx="38.37" cy="46.97" r="14.57"/><circle class="cls-1" cx="49.46" cy="53.89" r="14.57"/><circle class="cls-1" cx="23.25" cy="59.99" r="14.57"/></g></g></svg>