<svg xmlns="http://www.w3.org/2000/svg" viewBox="0 0 79.59 54.74"><defs><style>.cls-1{fill:#fff;}.cls-2{fill:#e6e6e6;}.cls-3{fill:#ff7bac;}</style></defs><title>YuanIcon</title><g id="Layer_2" data-name="Layer 2"><g id="YuanIcon"><path class="cls-1" d="M79.21.86C75.22-4.93,50.82,20.32,42,22c-6.92,1.34-27.25-3.88-37.43,8.5-8.14,9.89-5.08,18.22,7,22.75C22.75,57.51,37.9,51.76,43,45.94c3.49-3.95,4-8.47,7.43-14.06S83.21,6.65,79.21.86ZM74.86,4.32a1,1,0,1,1,1.25-.7A1,1,0,0,1,74.86,4.32Z"/><path class="cls-2" d="M41.28,33.77c-1.63,5.85-14.66,14.85-23.91,13.67C8.65,46.33,2.19,39,5.81,34.4S31.71,23.82,36.19,26C44.82,30.31,41.28,33.77,41.28,33.77Z"/><circle class="cls-3" cx="23.42" cy="28.67" r="8.89"/><circle class="cls-1" cx="30.19" cy="32.89" r="8.89"/><circle class="cls-3" cx="14.19" cy="36.62" r="8.89"/></g></g></svg>